<?xml version="1.0" encoding="UTF-8"?>
<svg width="752pt" height="752pt" version="1.1" viewBox="0 0 752 752" xmlns="http://www.w3.org/2000/svg">
 <g fill="#ffd65b">
  <path d="m218.58 314.95c-0.20703-0.015625-0.44531-0.0625-0.65234-0.070313 0.26953-0.039062 0.53906-0.0625 0.80859-0.09375-0.050781 0.054688-0.10547 0.10547-0.15625 0.16406z"/>
  <path d="m378.14 399.68c-0.48438 9.6914-1.2578 16.004-2.1406 16.004s-1.6523-6.3086-2.1406-16.004c-33.164-0.046875-59.723-1.2188-59.723-2.6602 0-1.4336 26.434-2.6055 59.496-2.6562-0.1875-5.4141-0.29687-11.543-0.29687-18.055 0-21.746 1.1953-39.375 2.6602-39.375 1.4688 0 2.6602 17.625 2.6602 39.375 0 6.5117-0.10938 12.641-0.29688 18.055 33.062 0.050781 59.496 1.2227 59.496 2.6562 0.003906 1.4414-26.547 2.6133-59.715 2.6602z"/>
  <path d="m533.43 314.95c-0.050781-0.058594-0.10547-0.10938-0.15625-0.16406 0.26953 0.03125 0.53906 0.058594 0.80859 0.09375-0.20703 0.007813-0.44141 0.054688-0.65234 0.070313z"/>
  <path d="m359.08 246.78c0 4.582-3.7188 8.3008-8.3047 8.3008-4.582 0-8.3008-3.7188-8.3008-8.3008 0-4.5859 3.7188-8.3047 8.3008-8.3047 4.5859 0 8.3047 3.7188 8.3047 8.3047"/>
  <path d="m578.91 407.5c4.7578 0.93359 8.543 1.1406 9.6953-0.9375 1.1133-2-0.29688-5.7539-4.5938-9.9688-1.875-1.7695-4.3008-3.6289-7.6133-5.1211 5.1445 0.73438 8.7695 0.77734 9.8789-1.1445 1.168-2.0078-1.0938-6.1523-6.3477-10.254-0.73438-0.5625-1.543-1.1289-2.3945-1.6797 1.9648-0.015625 3.4531-0.42188 4.0898-1.5742 1.1133-2.0039-0.29688-5.7539-4.5938-9.9688-1.875-1.7695-4.3008-3.6289-7.6133-5.1211 5.1367 0.73438 8.7695 0.77734 9.8789-1.1445 1.168-2.0078-1.0938-6.1523-6.3477-10.254-2.4453-1.8711-5.5352-3.7656-9.543-5.1914 2.8359-0.13672 5.2266-0.33203 6.9961-0.625 2.293-0.39453 3.4727-0.95703 4.1484-1.9336 0.67188-0.95703-0.37109-2.8906-2.4961-4.5625-2.125-1.7344-5.3359-3.4062-9.457-4.8828-3.2188-1.1367-6.9961-2.1445-11.277-2.8086 3.25-0.085938 5.9375-0.1875 7.875-0.46484 1.9844-0.28516 3.1367-0.71875 3.9336-1.6016 0.77734-0.83203 0.11719-2.8477-1.7812-4.7188-1.832-1.8359-4.7461-3.6797-8.5-5.2422-1.8594-0.76172-3.9297-1.4727-6.2031-2.0508 1.8359-0.11328 3.125-0.58203 3.7109-1.6055 1.168-2.0078-1.0938-6.1523-6.3477-10.254-2.3008-1.7617-5.1875-3.5312-8.8516-4.9297 0.015625-0.003906 0.039062-0.007812 0.050781-0.019531 1.7031-0.63281 2.6914-1.2891 3.375-2.2695 0.67578-0.9375-0.097656-2.7812-1.9883-4.3008-1.8516-1.5391-4.625-2.8594-8.1641-3.8164-3.5391-0.93359-7.8047-1.5156-12.777-1.2109-2.0352 0.17969-4.2109 0.51953-6.5312 1.1562 1.8594-0.69141 3.418-1.2891 4.5625-1.8086 1.5078-0.73047 2.4453-1.3203 3.2852-2.1914 0.81641-0.78516 0.085938-2.9258-2.1406-4.4297-2.1172-1.4883-5.2383-2.5-9.0352-2.9062-3.7969-0.38672-8.2695-0.20703-13.277 1.0469-1.1953 0.32812-2.4141 0.69531-3.6719 1.1602 1.8281-1.1562 3.0078-2.2773 3.2812-3.5898 0.51562-2.3906-3.6367-5.2188-10.039-5.7773-3.2422-0.29297-7.1289-0.15625-11.625 1.1641-1.6797 0.5625-3.4375 1.1992-5.3008 2.2734-0.082031-0.019531-0.16406-0.046875-0.24609-0.070312 2.582-1.0781 4.7461-2.0586 6.2383-2.9258 1.6289-0.97266 2.5117-1.8281 2.9883-2.9414 0.47266-1.0742-0.63281-2.6953-2.7656-3.793-2.0977-1.1328-5.0859-1.8789-8.7773-2.1328-0.46875-0.027344-0.97656-0.023438-1.4648-0.039063 0.51172-0.35156 0.97656-0.72266 1.3867-1.1758 0.77734-0.78906 0.32031-2.793-1.6992-4.3867-1.8867-1.4961-4.8164-2.5781-8.3047-2.9414-0.60547-0.0625-1.2578-0.074219-1.9023-0.097656 0.71484-0.03125 1.4688-0.066406 2.1367-0.097656 5.4727-0.23828 8.8477-0.64844 10.051-2.6133 1.2656-2.0312-1.6914-6.293-7.4883-9.3125-1.4922-0.78125-3.1758-1.5156-5.0781-2.125 2.168 0.21875 4.168 0.29688 5.7109 0.027344 1.918-0.30859 3.2734-1.1836 3.3945-2.3594 0.13281-1.2109-0.22656-2.4297-1.2461-3.9609-1.0469-1.5352-2.7578-3.3242-5.1797-5.2227-2.4531-1.875-5.5-3.9062-9.8047-5.4453-0.50781-0.17969-1.043-0.35547-1.6055-0.51172 1.6094 0.1875 3.1953 0.40234 4.6562 0.55469 5.5586 0.65234 9.9062 0.38672 10.637-1.9375 0.68359-2.207-1.4961-5.6602-6.7148-9.5391-0.51172-0.36328-1.0742-0.73438-1.6367-1.1016 1.1445-0.44922 2.0586-0.91016 2.7383-1.6797 0.75391-0.82031 0.42188-2.6836-1.1992-4.4219-1.5547-1.6914-4.1172-3.2617-7.3828-4.3086-0.15625-0.046875-0.33594-0.085937-0.49219-0.13281 0.32812-0.33203 0.64844-0.66016 0.91406-1.0469 0.66797-0.90625-0.09375-2.8281-2.3359-4.0625-2.0977-1.1758-5.168-1.7578-8.7109-1.5625-0.83203 0.046875-1.7031 0.14844-2.5938 0.28125 1.3516-0.96484 2.1992-1.9375 2.4297-3.0469 0.51562-2.3906-3.6367-5.2188-10.039-5.7773-0.74219-0.066406-1.5312-0.10547-2.3359-0.11719 0.26172-0.34766 0.53906-0.68359 0.69922-1.0742 0.46094-1.0703-0.44531-2.6562-2.3945-3.793-1.8984-1.1328-4.6523-1.8984-8.0195-2.1016-1.6797-0.09375-3.5195-0.0625-5.4883 0.17188 0.28125-0.78516 0.50391-1.5078 0.6875-2.168 0.25391-1.0859 1.0547-2.0078 1.4766-3.1406 0.40625-1.0117-0.007813-2.6758-2.1133-3.5625-1.9062-0.79688-4.6055-0.46484-7.0625 0.625-1.7344-1.9453-5.9688-2.8945-13.98-0.31641-0.24609 0.13281-0.49609 0.27344-0.75 0.40625 0.17187-1.7461 0.13672-3.207-0.28906-4.5742-0.40234-1.0742-1.6484-1.793-3.4922-1.5391-1.793 0.24219-3.9766 1.3633-6.043 3.2383-0.94531 0.86719-1.8867 1.9102-2.7812 3.082-0.37891-0.20703-0.75781-0.41797-1.1328-0.61719-4.3945-2.1133-8.4766-3.0312-12.035-3.2344-3.543-0.19922-6.6094 0.38672-8.7109 1.5625-2.2383 1.2305-3.0039 3.1523-2.3359 4.0625 0.69141 1.0078 1.5742 1.7383 2.7461 2.668 1.2969 0.96094 3.1641 2.0977 5.5 3.5703 1.4062 0.89062 2.9844 1.9375 4.5977 3.0547-0.058594 0.015625-0.10938 0.03125-0.16406 0.046875-1.4688-0.73047-2.8945-1.2852-4.2734-1.7773-4.4805-1.4141-8.4648-1.7344-11.836-1.543-3.3672 0.20703-6.125 0.97656-8.0195 2.1016-1.9492 1.1367-2.8594 2.7227-2.3945 3.793 0.16406 0.39453 0.44141 0.73047 0.69922 1.0742-0.80859 0.015624-1.5977 0.046874-2.3359 0.11719-6.4023 0.55859-10.555 3.3867-10.039 5.7773 0.23047 1.1094 1.0781 2.0742 2.4297 3.0469-0.89062-0.13281-1.7617-0.22656-2.5938-0.28125-3.543-0.19922-6.6094 0.38672-8.7109 1.5625-2.2383 1.2305-3.0039 3.1523-2.3359 4.0625 0.26562 0.38672 0.58594 0.71484 0.91406 1.0469-0.16016 0.046875-0.33594 0.082031-0.49219 0.13281-3.2695 1.0469-5.8281 2.6172-7.3828 4.3086-1.6133 1.7383-1.9453 3.6055-1.1992 4.4219 0.67578 0.77344 1.5898 1.2305 2.7383 1.6797-0.56641 0.37109-1.1289 0.73828-1.6367 1.1016-5.2188 3.875-7.3984 7.332-6.7148 9.5391 0.73047 2.3242 5.0781 2.5898 10.637 1.9375 1.457-0.15625 3.0469-0.36328 4.6562-0.55469-0.5625 0.16016-1.0977 0.33203-1.6055 0.51172-4.3047 1.543-7.3516 3.5703-9.8047 5.4453-2.4297 1.8984-4.1406 3.6875-5.1797 5.2227-1.0195 1.5234-1.3789 2.7422-1.2461 3.9609 0.125 1.1797 1.4805 2.0508 3.3945 2.3594 1.543 0.26953 3.543 0.1875 5.7109-0.027344-1.8984 0.60547-3.5859 1.3438-5.0781 2.125-5.7969 3.0156-8.75 7.2734-7.4883 9.3125 1.2031 1.9648 4.5742 2.3711 10.051 2.6133 0.66797 0.03125 1.4219 0.066407 2.1367 0.097657-0.64453 0.019531-1.293 0.039062-1.9023 0.097656-3.4922 0.35938-6.4219 1.4414-8.3047 2.9414-2.0234 1.5898-2.4727 3.5938-1.6992 4.3867 0.41797 0.45312 0.875 0.82422 1.3867 1.1758-0.48828 0.015625-0.99609 0.007813-1.4648 0.039063-3.6875 0.25-6.6758 1-8.7773 2.1328-2.125 1.0977-3.2383 2.7188-2.7656 3.793 0.47656 1.1172 1.3555 1.9688 2.9883 2.9414 1.4922 0.86719 3.6562 1.8438 6.2383 2.9258-0.082031 0.019532-0.16406 0.046876-0.24609 0.070313-1.8555-1.0742-3.6133-1.7109-5.3008-2.2734-4.5-1.3203-8.3789-1.457-11.625-1.1641-6.4023 0.55859-10.555 3.3867-10.039 5.7773 0.27344 1.3125 1.457 2.4336 3.2812 3.5898-1.2539-0.46484-2.4766-0.83203-3.6719-1.1602-5.0117-1.2539-9.4766-1.4336-13.277-1.0469-3.793 0.40625-6.918 1.4219-9.0352 2.9062-2.2266 1.5078-2.957 3.6484-2.1406 4.4297 0.84375 0.875 1.7812 1.4648 3.2852 2.1914 1.1445 0.51953 2.7031 1.1133 4.5625 1.8086-2.3203-0.63281-4.4961-0.98047-6.5312-1.1562-4.9727-0.30469-9.2344 0.28125-12.777 1.2109-3.5391 0.95703-6.3164 2.2773-8.1641 3.8164-1.8906 1.5156-2.668 3.3633-1.9883 4.3008 0.6875 0.98047 1.6719 1.6367 3.375 2.2695 0.015626 0.003906 0.039063 0.007813 0.050782 0.019531-3.6641 1.3984-6.5508 3.1719-8.8516 4.9297-5.2539 4.0977-7.5195 8.2461-6.3477 10.254 0.58594 1.0195 1.875 1.4922 3.7109 1.6055-2.2734 0.58203-4.3438 1.2891-6.2031 2.0508-3.7539 1.5625-6.668 3.4062-8.5 5.2422-1.8945 1.8711-2.5586 3.8828-1.7812 4.7188 0.80078 0.88281 1.957 1.3164 3.9336 1.6016 1.9375 0.27344 4.625 0.37891 7.875 0.46484-4.2852 0.66016-8.0547 1.668-11.277 2.8086-4.1211 1.4766-7.332 3.1484-9.457 4.8828-2.1328 1.6719-3.1719 3.6055-2.4961 4.5625 0.67578 0.97656 1.8594 1.5391 4.1484 1.9336 1.7656 0.29297 4.1641 0.48828 6.9961 0.625-4.0078 1.4258-7.0977 3.3203-9.543 5.1914-5.2539 4.0977-7.5195 8.2461-6.3477 10.254 1.1133 1.9219 4.7422 1.8789 9.8789 1.1445-3.3164 1.4922-5.7344 3.3477-7.6133 5.1211-4.2969 4.2188-5.707 7.9688-4.5938 9.9688 0.64062 1.1445 2.125 1.5586 4.0898 1.5742-0.85156 0.55469-1.6641 1.1211-2.3945 1.6797-5.2539 4.1016-7.5195 8.2461-6.3477 10.254 1.1133 1.9219 4.7422 1.8789 9.8789 1.1445-3.3164 1.4922-5.7344 3.3477-7.6133 5.1211-4.2969 4.2188-5.707 7.9688-4.5938 9.9688 1.1523 2.0781 4.9336 1.8711 9.6953 0.9375 2.3633-0.44141 5.082-1.0469 7.4219-1.1992h0.027344c-3.0078 0.41016-5.7734 1.0508-8.0352 1.9883-5.9062 2.293-9.2773 6.6094-7.9102 8.6484 1.2734 1.9219 4.1641 2.6289 9.4023 3.4922 0.042968 0.007813 0.097656 0.015625 0.14844 0.023438-1.1562 0.85547-2.1133 1.7773-2.9805 2.6562-3.1523 3.457-4.8008 6.8086-5.9258 9.7188-2.1367 5.8594-1.8789 9.9062-0.066406 11.164 0.89062 0.61719 2.1016 0.47266 3.543-0.16406-0.35547 0.90625-0.67188 1.8047-0.92188 2.6758-1.1016 3.8633-1.1367 7.3945-0.37891 9.793 0.70703 2.3906 2.0117 3.3984 3.0273 3.207 1.3906-0.36328 2.5039-1.6797 3.9688-3.4648-0.23047 0.64062-0.47656 1.2891-0.66406 1.9141-1.1016 3.8633-1.1367 7.3945-0.37891 9.793 0.70703 2.3906 2.0117 3.4062 3.0273 3.207 1.8711-0.49219 3.2266-2.6289 5.6836-5.4648-2.7344 4.1953-4.2891 8.3398-5.1562 12.047-0.93359 4.0625-0.91406 7.6875-0.19531 10.219 0.66406 2.5195 2.0039 3.6875 3.0117 3.4766 1.9492-0.51172 3.3672-3.0781 6.168-6.9375-0.007813 0.023437-0.019532 0.050781-0.027344 0.074218-1.1016 3.8633-1.1367 7.3945-0.37891 9.793 0.70703 2.3906 2.0117 3.4062 3.0273 3.207 1.0117-0.26562 1.8672-1.0508 2.8125-2.1211-1.6875 3.1367-2.582 6.1797-2.6367 8.5391-0.10938 2.625 0.85156 4.207 1.8672 4.332 1.5742 0.11719 3.207-1.0703 5.6641-2.8594-0.60156 1.7578-0.93359 3.3984-0.96484 4.7969-0.050781 1.2305 0.14844 2.207 0.46094 2.9375-3.8711 2.875-6.4375 7.6797-6.4375 13.176 0 7.8516 5.1953 14.355 12.039 15.703 1.6211 7.8672 8.0352 13.758 15.73 13.758 2.5039 0 4.8438-0.67188 6.957-1.7812 2.957 4.4297 7.2031 7.2695 11.977 7.2695 8.9219 0 16.152-9.7305 16.152-21.734 0-4.543-1.043-8.7461-2.8086-12.238 4.7344-3.0742 7.9414-8.6523 7.9414-15.102 0-9.7305-7.2305-17.625-16.152-17.625-0.10938 0-0.20703 0.03125-0.31641 0.03125 0.074218-0.46875 0.10547-0.98828 0.007812-1.6055-0.18359-1.4727-1.1211-3.25-2.5859-4.7969 0-0.28125-0.003907-0.56641-0.007813-0.84766 1.7188 2.0898 2.8945 3.6211 4.4336 4.0273 1.0195 0.19531 2.3242-0.81641 3.0273-3.207 0.75781-2.4023 0.72266-5.9336-0.37891-9.793-1.1211-3.8711-3.1523-8.1367-6.8906-12.078-0.039062-0.042968-0.085937-0.082031-0.125-0.11719 0-0.074219 0-0.15625 0.003907-0.23828 1.0781 0.47266 2.0039 0.60156 2.7656 0.20703 0.63281-0.30859 1.0781-1.0938 1.3008-2.2031 1.5469 1.5664 2.6055 2.6602 3.9297 3.082 0.54297 0.074219 1.0781-0.12891 1.6016-0.74219 0.53516-0.62109 1.0508-1.6797 1.2227-3.0195 0.44141-2.5781-0.10938-6.1523-1.6484-9.7734 0.74219-0.47266 1.4805-1.4922 1.9258-3.168 0.72266-2.5352 0.73828-6.1602-0.19531-10.219-0.86719-3.707-2.4258-7.8516-5.1562-12.047 2.457 2.832 3.8125 4.9727 5.6836 5.4648 1.0195 0.19531 2.3242-0.81641 3.0273-3.207 0.75781-2.4023 0.72266-5.9336-0.37891-9.793-1.1211-3.8711-3.1523-8.1367-6.8906-12.078-0.39844-0.4375-0.83984-0.86328-1.293-1.2852 0.20312 0.003906 0.40625-0.007813 0.61719 0.003906 2.0078 0.17969 3.8398 0.69141 5.2852 1.2578 1.3828 0.58203 2.6094 1.2539 3.5977 2.168 1.043 0.87109 1.9648 1.8477 3.082 2.0039 1.0312 0.16016 2.2891-0.58594 3.0547-2.7812 0.82812-2.1641 0.60547-5.9297-1.3516-9.5234-0.88672-1.6094-2.1172-3.125-3.5703-4.4844 0.77734 0.41797 1.5117 0.87109 2.125 1.4414 1.043 0.87109 1.9648 1.8477 3.082 2.0039 1.0312 0.16016 2.2891-0.58594 3.0547-2.7812 0.82813-2.1641 0.60547-5.9297-1.3516-9.5234-0.26953-0.48828-0.62891-0.94141-0.95312-1.4141 0.066406 0.023438 0.15234 0.042969 0.21484 0.066407 1.3828 0.58203 2.6094 1.2539 3.5977 2.1641 1.043 0.87109 1.9648 1.8477 3.082 2.0039 1.0312 0.16406 2.2891-0.58594 3.0547-2.7812 0.82812-2.1641 0.60547-5.9297-1.3516-9.5234-0.48438-0.875-1.0625-1.7344-1.7148-2.5469 1.0977 0.47656 2.1172 1 2.9453 1.5352 1.2578 0.85547 2.3438 1.7695 3.1602 2.8711 0.87109 1.0703 1.6094 2.2227 2.6797 2.6055 0.98438 0.375 2.3438-0.10547 3.4805-2.0977 0.71875-1.1875 1.1016-3.0703 1.0469-5.2148 0.26562 0.89453 0.61719 1.5469 1.0469 1.8555-0.023437 0.074219-0.050781 0.15625-0.074218 0.23828-1.3867 4.9453-1.6367 9.1641-1.543 12.707 0.24609 7.043 2.1797 11.387 4.3555 11.422 1.4531 0.03125 2.8398-1.5664 4.3125-4.2539-0.26953 0.875-0.50781 1.7422-0.6875 2.582-0.82031 3.8555-0.68359 7.2227 0.058594 9.4922 0.69922 2.2695 1.8789 3.3086 2.9297 3.2305 0.41797-0.050781 0.80078-0.30469 1.1875-0.55078-0.18359 0.35156-0.39453 0.71094-0.55859 1.0508-3.0078 6.2383-3.3242 11.047-1.4531 12.27 1.3203 0.87109 3.4258 0.10547 6.1602-1.6289-0.12891 0.1875-0.28516 0.38281-0.40625 0.57422-2.0586 3.2539-3.0703 6.4414-3.1445 8.8477-0.10938 2.3906 0.63281 3.8359 1.6367 4.1758 1.7188 0.49609 3.6836-0.85547 6.6055-2.6484-1.3203 2.6328-2.2344 5.125-2.875 7.3672-1.8516 6.7539-1.3125 11.543 0.74219 12.348 0.29297 0.11719 0.61719 0.14062 0.94531 0.125-0.007813 0.046874-0.027344 0.10547-0.039063 0.15234-0.1875 1.1758-0.11719 2.1211 0.082032 2.8789-2.8477 2.4258-4.9258 5.2383-5.707 7.7617-0.47266 1.3789-0.51562 2.6133-0.28516 3.5078 0.20312 0.86328 0.59766 1.3164 1.1172 1.5 0.51953 0.18359 1.1523 0.097656 1.8008-0.066407 0.49609-0.15625 1.2227-0.38281 2.1445-0.67187 1.4453-0.45313 3.3711-1.0547 5.8945-1.6641-1.2305 0.63281-2.3906 1.2969-3.4102 1.9805-5.3906 3.6289-7.8203 7.8203-6.6016 9.8164 1.043 1.7422 3.9961 2.0156 8.2812 1.8516-1.625 0.76563-3.082 1.6094-4.3633 2.4688-5.3906 3.6289-7.8203 7.8203-6.6016 9.8164 0.71484 1.1953 2.3789 1.668 4.6797 1.8242-0.41016 0.25-0.84375 0.50391-1.2227 0.75781-5.3906 3.6289-7.8203 7.8203-6.6016 9.8164 0.97266 1.625 3.6094 1.9805 7.4336 1.8867-1.168 0.60938-2.2734 1.2422-3.25 1.8945-5.3906 3.6289-7.8203 7.8203-6.6016 9.8164 0.93359 1.5625 3.3711 1.957 6.9531 1.9023-5.2891 3.6094-7.6758 7.7422-6.4727 9.7227 0.92969 1.5547 3.3477 1.9492 6.8984 1.9023-1.0195 1.668-1.2969 3.1367-0.71484 4.0977 0.28906 0.48438 0.73438 0.84766 1.2969 1.1328-9.7148 1.0664-17.902 3.832-22.754 7.5859-1.4297-0.9375-3.0859-1.5117-4.8789-1.5117-5.2578 0-9.5195 4.6523-9.5195 10.391 0 0.5625 0.070313 1.1094 0.15234 1.6484-1.1875 2-1.8945 4.3711-1.8945 6.9297 0 6.1797 4.0195 11.332 9.3594 12.52 1.332 7.0898 7.0781 12.422 13.969 12.422 5.7266 0 10.629-3.7031 12.895-9.0117 1.7383 1.1133 3.7383 1.8008 5.9023 1.8008 6.0273 0 10.934-4.9883 11.582-11.379 17.121-1.2891 30.168-7.8789 30.168-15.836 0-3.9453-3.2383-7.543-8.5586-10.34 0.92188-0.21484 1.7695-0.53906 2.4141-1.2031 1.3398-1.3555 1.7031-4.0156 0.058594-7.1992 1.6445 1.6641 2.7227 2.8125 4.0977 3.2539 0.54297 0.074218 1.0781-0.12891 1.6016-0.74219 0.53516-0.62109 1.0508-1.6797 1.2227-3.0195 0.47266-2.75-0.13672-6.6484-1.9414-10.523-0.11328-0.24609-0.27344-0.50391-0.39844-0.75 0.46875 0.34766 0.93359 0.61719 1.4414 0.77734 0.53906 0.074219 1.0781-0.12891 1.6016-0.74219 0.53516-0.62109 1.0508-1.6797 1.2227-3.0195 0.32031-1.8594 0.097656-4.2617-0.60547-6.8086 0.625-0.34766 1.2344-0.89062 1.8438-1.6641 0.13672 1.2266 0.35938 2.3477 0.69922 3.2422 0.81641 2.2266 2.043 3.1953 3.082 3.0547 1.3125-0.24609 2.3789-1.5625 3.6406-3.4141 0.14062 0.72266 0.31641 1.3906 0.53906 1.9688 0.81641 2.2266 2.043 3.1953 3.082 3.0547 1.7344-0.32812 3.0039-2.4102 4.9336-5.3086 0.085937 1.7109 0.37109 3.2109 0.81641 4.3789 0.81641 2.2266 2.043 3.1953 3.082 3.0547 1.2656-0.23828 2.3008-1.4688 3.5039-3.207 1.207 2.2266 2.5898 3.3398 3.8516 3.207 2.0703-0.23047 3.4805-3.3008 4.8164-7.625 1.3359 4.3203 2.7461 7.3945 4.7266 7.5898 1.2578 0.13281 2.6367-0.98438 3.8516-3.207 1.2031 1.7422 2.2383 2.9688 3.5039 3.207 1.043 0.14062 2.2734-0.82812 3.082-3.0547 0.44531-1.168 0.73047-2.668 0.81641-4.3789 1.9336 2.8984 3.2031 4.9805 4.9336 5.3086 1.043 0.14062 2.2734-0.82812 3.082-3.0547 0.22266-0.58203 0.40234-1.2461 0.53906-1.9688 1.2656 1.8516 2.3281 3.168 3.6406 3.4141 1.043 0.14062 2.2734-0.82812 3.082-3.0547 0.33984-0.89453 0.5625-2.0156 0.69922-3.2422 0.60547 0.77734 1.2188 1.3164 1.8438 1.6641-0.70703 2.5469-0.92969 4.9492-0.60547 6.8086 0.17188 1.3359 0.6875 2.4023 1.2227 3.0195 0.52734 0.62109 1.0625 0.82422 1.6016 0.74219 0.50781-0.16016 0.97266-0.42969 1.4414-0.77734-0.125 0.25-0.28125 0.50391-0.39844 0.75-1.8008 3.875-2.4102 7.7695-1.9414 10.523 0.17188 1.3359 0.6875 2.4023 1.2227 3.0195 0.52734 0.62109 1.0625 0.82422 1.6016 0.74219 1.375-0.4375 2.4531-1.5898 4.0977-3.2539-1.6484 3.1836-1.2852 5.8438 0.058593 7.1992 0.64453 0.66406 1.4961 0.98828 2.4141 1.2031-5.3164 2.8008-8.5586 6.3945-8.5586 10.34 0 7.957 13.047 14.543 30.168 15.836 0.64844 6.3867 5.5547 11.379 11.582 11.379 2.1641 0 4.1641-0.68359 5.9023-1.8008 2.2695 5.3086 7.1758 9.0117 12.895 9.0117 6.8906 0 12.641-5.332 13.969-12.422 5.3438-1.1875 9.3594-6.3398 9.3594-12.52 0-2.5586-0.70703-4.9297-1.8945-6.9297 0.082031-0.53906 0.15234-1.0859 0.15234-1.6484 0-5.7344-4.2617-10.391-9.5195-10.391-1.7891 0-3.4492 0.57422-4.8789 1.5117-4.8555-3.7539-13.043-6.5273-22.754-7.5859 0.5625-0.28516 1.0078-0.64453 1.2969-1.1328 0.58203-0.96094 0.30859-2.4297-0.71484-4.0977 3.5508 0.046875 5.9727-0.35156 6.8984-1.9023 1.2031-1.9844-1.1797-6.1133-6.4727-9.7227 3.5742 0.050781 6.0195-0.33984 6.9531-1.9023 1.2109-2-1.2109-6.1914-6.6016-9.8164-0.97266-0.65234-2.0781-1.2852-3.25-1.8945 3.832 0.09375 6.4648-0.25391 7.4336-1.8867 1.2109-2-1.2109-6.1914-6.6016-9.8164-0.38281-0.25391-0.80859-0.50781-1.2227-0.75781 2.3008-0.15625 3.9648-0.62891 4.6797-1.8242 1.2109-2-1.2109-6.1914-6.6016-9.8164-1.2773-0.85547-2.7383-1.6992-4.3633-2.4688 4.2852 0.16406 7.2422-0.10938 8.2812-1.8516 1.2109-2-1.2109-6.1914-6.6016-9.8164-1.0195-0.68359-2.1719-1.3438-3.4102-1.9805 2.5234 0.60156 4.4531 1.2031 5.8945 1.6641 0.92969 0.28906 1.6484 0.51562 2.1445 0.67188 0.64844 0.17188 1.2773 0.25 1.8008 0.066406 0.51953-0.18359 0.91406-0.64062 1.1172-1.5 0.23047-0.89453 0.1875-2.1328-0.28516-3.5078-0.78125-2.5234-2.8594-5.3359-5.707-7.7617 0.19922-0.75781 0.26953-1.7031 0.082031-2.8789-0.003906-0.046875-0.027344-0.10547-0.039062-0.15234 0.33203 0.023438 0.65234-0.003906 0.94531-0.125 2.0547-0.80469 2.5898-5.5938 0.74219-12.348-0.63281-2.2461-1.5469-4.7344-2.875-7.3672 2.9219 1.7891 4.8867 3.1445 6.6055 2.6484 1.0039-0.34766 1.7461-1.7891 1.6367-4.1758-0.074219-2.4062-1.0859-5.5938-3.1445-8.8477-0.11719-0.1875-0.28125-0.38281-0.40625-0.57422 2.7383 1.7344 4.8438 2.4961 6.1602 1.6289 1.8711-1.2227 1.5547-6.0352-1.4531-12.27-0.17188-0.33984-0.375-0.69922-0.55859-1.0508 0.38672 0.24219 0.77344 0.49219 1.1875 0.55078 1.0469 0.082031 2.2266-0.96094 2.9297-3.2305 0.73828-2.2695 0.875-5.6367 0.058593-9.4922-0.17578-0.83984-0.41797-1.7031-0.6875-2.582 1.4727 2.6797 2.8633 4.2812 4.3125 4.2539 2.1797-0.039062 4.1094-4.3789 4.3555-11.422 0.09375-3.543-0.16016-7.7656-1.543-12.707-0.023437-0.074218-0.050781-0.15625-0.074218-0.23828 0.42969-0.30859 0.78125-0.96484 1.0469-1.8555-0.050781 2.1445 0.32812 4.0312 1.0469 5.2148 1.1367 2 2.4961 2.4727 3.4805 2.0977 1.0664-0.38281 1.8086-1.5352 2.6797-2.6055 0.81641-1.0977 1.9023-2.0117 3.1602-2.8711 0.82422-0.53516 1.8477-1.0547 2.9453-1.5352-0.66016 0.81641-1.2344 1.6719-1.7148 2.5469-1.957 3.5938-2.1797 7.3594-1.3516 9.5234 0.76563 2.1914 2.0234 2.9453 3.0547 2.7812 1.1133-0.15625 2.043-1.1328 3.082-2.0039 0.99609-0.91016 2.2148-1.582 3.5977-2.1641 0.0625-0.023437 0.14844-0.042969 0.21484-0.066406-0.32031 0.46875-0.6875 0.92969-0.95312 1.4141-1.957 3.5938-2.1797 7.3594-1.3516 9.5234 0.76562 2.1914 2.0234 2.9453 3.0547 2.7812 1.1133-0.15625 2.043-1.1367 3.082-2.0039 0.61719-0.5625 1.3516-1.0234 2.125-1.4414-1.457 1.3633-2.6836 2.875-3.5703 4.4844-1.957 3.5938-2.1797 7.3594-1.3516 9.5234 0.76562 2.1992 2.0234 2.9453 3.0547 2.7812 1.1133-0.15625 2.043-1.1367 3.082-2.0039 0.99609-0.91016 2.2148-1.582 3.5977-2.168 1.4414-0.56641 3.2734-1.0742 5.2852-1.2578 0.20703-0.015626 0.40625-0.003907 0.61719-0.003907-0.45312 0.42188-0.89453 0.84766-1.293 1.2852-3.7383 3.9414-5.7695 8.2109-6.8906 12.078-1.1016 3.8633-1.1367 7.3945-0.37891 9.793 0.70703 2.3906 2.0117 3.4062 3.0273 3.207 1.8711-0.49219 3.2266-2.6289 5.6836-5.4648-2.7344 4.1953-4.2891 8.3398-5.1562 12.047-0.93359 4.0625-0.91406 7.6875-0.19531 10.219 0.44141 1.6758 1.1836 2.6953 1.9258 3.168-1.5391 3.6211-2.0898 7.2031-1.6484 9.7734 0.17188 1.3359 0.6875 2.4023 1.2227 3.0195 0.52734 0.62109 1.0625 0.82422 1.6016 0.74219 1.3242-0.42188 2.3828-1.5195 3.9297-3.082 0.22656 1.1133 0.67188 1.8984 1.3008 2.2031 0.76563 0.38672 1.6875 0.26563 2.7656-0.20703 0 0.074219 0 0.15625 0.003906 0.23828-0.039063 0.042969-0.085938 0.082032-0.125 0.11719-3.7383 3.9414-5.7695 8.2109-6.8906 12.078-1.1016 3.8633-1.1367 7.3945-0.37891 9.793 0.70703 2.3906 2.0117 3.4062 3.0273 3.207 1.5391-0.40234 2.7148-1.9375 4.4336-4.0273 0 0.28125-0.003906 0.56641-0.007812 0.84766-1.4648 1.5469-2.4023 3.3242-2.5859 4.7969-0.09375 0.61719-0.066406 1.1367 0.007812 1.6055-0.10937-0.003906-0.20703-0.03125-0.31641-0.03125-8.9219 0-16.152 7.8906-16.152 17.625 0 6.4492 3.207 12.027 7.9414 15.102-1.7695 3.4844-2.8086 7.6953-2.8086 12.238 0 12.004 7.2305 21.734 16.152 21.734 4.7734 0 9.0156-2.8398 11.977-7.2695 2.1172 1.1094 4.457 1.7812 6.957 1.7812 7.6992 0 14.113-5.8906 15.73-13.758 6.8398-1.3516 12.039-7.8516 12.039-15.703 0-5.4922-2.5664-10.301-6.4375-13.176 0.31641-0.73047 0.51172-1.7031 0.46094-2.9375-0.03125-1.3984-0.36328-3.0391-0.96484-4.7969 2.457 1.7891 4.0977 2.9805 5.6641 2.8594 1.0117-0.12891 1.9805-1.7031 1.8672-4.332-0.058594-2.3594-0.95313-5.4102-2.6367-8.5391 0.94531 1.0703 1.8008 1.8555 2.8125 2.1211 1.0195 0.19531 2.3242-0.81641 3.0273-3.207 0.75781-2.4023 0.72266-5.9336-0.37891-9.793-0.007812-0.023438-0.019531-0.050781-0.027344-0.074219 2.8008 3.8633 4.2148 6.4258 6.168 6.9375 1.0078 0.21875 2.3477-0.95312 3.0117-3.4766 0.72266-2.5352 0.73828-6.1602-0.19531-10.219-0.86719-3.707-2.4258-7.8516-5.1562-12.047 2.457 2.8359 3.8125 4.9727 5.6836 5.4648 1.0195 0.19531 2.3242-0.81641 3.0273-3.207 0.75781-2.4023 0.72266-5.9336-0.37891-9.793-0.17969-0.625-0.42969-1.2695-0.66406-1.9141 1.4648 1.7852 2.5781 3.1016 3.9688 3.4648 1.0195 0.19531 2.3242-0.81641 3.0273-3.207 0.75781-2.4023 0.72266-5.9336-0.37891-9.793-0.25-0.87109-0.56641-1.7695-0.92188-2.6758 1.4414 0.64062 2.6523 0.78125 3.543 0.16406 1.8125-1.2539 2.0703-5.3047-0.066407-11.164-1.1211-2.9023-2.7695-6.2617-5.9258-9.7188-0.86719-0.88281-1.8242-1.8008-2.9805-2.6562 0.046875-0.007813 0.097657-0.015626 0.14844-0.023438 5.2383-0.86328 8.125-1.5664 9.4023-3.4922 1.3672-2.0352-2.0039-6.3555-7.9102-8.6484-2.2656-0.9375-5.0352-1.5781-8.0352-1.9883h0.027344c2.3984 0.17188 5.1133 0.77734 7.4766 1.2188zm-186.18-174.89c13.664-7.1328 24.559-11.41 32.754 4.8906 1.793 4.2422 1.2461 8.043-2.4844 11.926-14.523 11.312-33.867 10.105-41.27-5.1992-1.0234-4.3047 3.0742-7.8125 11-11.617zm-66.203 4.8906c8.1875-16.301 19.086-12.023 32.754-4.8906 7.9336 3.7969 12.027 7.3086 11 11.617-7.4023 15.305-26.742 16.516-41.27 5.1992-3.7305-3.8828-4.2812-7.6797-2.4844-11.926zm98.871 55.652c-1.5664-3.5977-4.3984-6.0273-7.6641-6.0273-4.8672 0-8.8125 5.3594-8.9453 12.035h-9.9297c-0.13281-6.6719-4.0742-12.035-8.9453-12.035-4.8672 0-8.8125 5.3594-8.9453 12.035h-9.9297c-0.13281-6.6719-4.0742-12.035-8.9453-12.035-4.8672 0-8.8125 5.3594-8.9453 12.035h-9.9297c-0.13281-6.6719-4.0742-12.035-8.9453-12.035-3.2695 0-6.0938 2.4297-7.6641 6.0273-1.5-2.4375-2.4102-5.2695-2.4102-8.332 0-6.5586 4-12.219 9.6758-14.691h5.3789c0.21484 6.5742 4.1094 11.824 8.9336 11.824 4.8203 0 8.7188-5.2539 8.9336-11.824h9.9609c0.20703 6.5742 4.1094 11.824 8.9336 11.824 4.8203 0 8.7188-5.2539 8.9336-11.824h9.9609c0.20703 6.5742 4.1094 11.824 8.9336 11.824 4.8164 0 8.7188-5.2539 8.9336-11.824h5.3711v-0.003906c5.6836 2.4688 9.6836 8.1328 9.6836 14.695-0.023437 3.0625-0.92969 5.8984-2.4336 8.332z"/>
  <path d="m409.53 246.78c0 4.582-3.7188 8.3008-8.3047 8.3008-4.582 0-8.3008-3.7188-8.3008-8.3008 0-4.5859 3.7188-8.3047 8.3008-8.3047 4.5859 0 8.3047 3.7188 8.3047 8.3047"/>
 </g>
</svg>
