<?xml version="1.0" encoding="UTF-8"?>
<svg width="752pt" height="752pt" version="1.1" viewBox="0 0 752 752" xmlns="http://www.w3.org/2000/svg">
 <path d="m292.34 302.03c0.28906-0.007812 0.49219-0.13281 0.60938-0.37109l0.089844-0.36328c3.5938-2.7344 6.9219-6.6445 9.9883-11.734 1.2188-2.0234 3.6562-6.7148 7.3125-14.098 2.8789-5.8203 5.4609-10.176 7.7383-13.066 3.2734-4.1484 7.0391-7 11.289-8.5469-0.3125 0-0.53125-0.125-0.65234-0.36328l-0.09375-0.37891-4.4453-2.2227c2.4688-1.1836 5.1055-3.0938 7.8945-5.7305 1.4961-1.4141 3.9219-3.9844 7.2734-7.6914 3.0703-3.4102 5.5-5.9023 7.2695-7.4648 2.7656-2.4297 5.418-4.1094 7.9531-5.0547l-5.1836 0.003907c0-0.25 0.125-0.49609 0.37109-0.73828 0.25-0.25391 0.37891-0.50391 0.37891-0.74219 6.0039-3.0078 12.172-5.5781 18.492-7.7305 5.1367-1.7578 10.078-3.1133 14.816-4.0586 0.19531-0.097657 0.39453-0.20313 0.60156-0.31641 2.3281-0.38281 5.4258-2.2266 9.2812-5.5352 3.8555-3.3164 7.9688-9.6094 12.332-18.887 4.3672-9.2773 9.0742-15.668 14.113-19.164 5.0195-3.5078 10.422-5.2266 16.215-5.1719 5.7773 0.058593 10.742 0.75391 14.879 2.0898 4.418 1.4492 8.3828 3.5 11.887 6.1602 8.3867 6.3594 12.578 14.754 12.578 25.176-3.3242 23.527-9.8867 39.777-19.684 48.754 0.53125 0.79688 1.0469 1.6445 1.5547 2.5469 1.4688 2.6289 2.9688 6.1719 4.5 10.629 0.875 2.5273 2.168 6.4258 3.8945 11.684 0.78516 2.2148 1.582 4.2422 2.3867 6.0703 0.83984 1.9141 1.6875 3.6172 2.543 5.1094h-1.1016c-0.27344 0-0.875-0.48828-1.8008-1.457-1.1367-1.207-1.8906-1.9609-2.2734-2.2461h-0.74219c2.4688 10.145 4.9297 17.566 7.3789 22.258 3.5156 6.7617 8.4648 11.699 14.855 14.812v0.73438h-8.1484c4.5469 3.7539 10.496 7.3828 17.844 10.859 6.6914 3.1719 13.605 5.7773 20.754 7.8203 0.71875 0.20312 1.4492 0.40234 2.168 0.60156l0.097656 0.37109c0.125 0.25 0.33594 0.37891 0.66016 0.37891-0.40234 0.39844-0.93359 0.73828-1.5859 1.0195-0.70703 0.30469-1.4258 0.45313-2.1211 0.45313 2.082 1.4023 5.0859 3.0547 9.0039 4.9531 5.3008 2.5664 8.5547 4.1836 9.7656 4.8555 7.4219 4.0117 12.641 8.6484 15.656 13.898-1.4297-0.11328-3.0547-0.60938-4.8672-1.4961-1.9688-0.96484-3.1719-1.4492-3.6172-1.4492h-0.77344c0.30469 0.34766 0.61719 0.69922 0.92969 1.0547 0.47266 0.55078 0.92188 1.0938 1.3672 1.6445 0.058594 0.070313 0.10938 0.14844 0.17188 0.21875 5.5234 7.043 8.2891 14.379 8.2891 21.988 0 3.0977-0.84375 6.1133-2.5273 9.0586-1.5352 2.668-3.6523 5.1055-6.3594 7.3125-2.5352 2.043-5.3008 3.6562-8.3008 4.8477-2.9805 1.168-5.7734 1.7461-8.3789 1.7461-1.9258 0-3.207-0.13281-3.8203-0.40625-0.71094-0.29688-1.5352-1.1562-2.4766-2.5586 0.53906-0.52734 1.4023-1.0195 2.5859-1.457 0.69141-0.24609 1.7695-0.60156 3.2109-1.0742 2.5586-0.97266 3.8398-2.4727 3.8398-4.5 0-1.1094-0.77734-2.2148-2.3398-3.3164-1.3438-0.97656-3.4844-2.0938-6.4297-3.3594-1.6641-0.71875-4.9062-2.0156-9.7383-3.875-5.0352-1.9492-9.1055-3.5859-12.223-4.9062-10.84-4.5898-20.391-9.5391-28.652-14.844-11.164-7.2031-20.777-15.516-28.832-24.934v-0.73438c-0.046875 0.21875-0.097656 0.44141-0.15625 0.66797v0.007813c-0.73047 2.6562-2.0078 5.6016-3.8281 8.8281-0.066407 0.089844-1.9688 3.1836-5.7148 9.2812-2.3438 3.7734-4.043 7.043-5.1211 9.8047-1.1406 2.8633-1.8438 5.6914-2.1016 8.4883-0.085938 0.85156-0.12891 1.7148-0.12891 2.5859 0 5.3477 2.1641 11.043 6.4883 17.098 1.3594 1.9102 3.582 4.707 6.6523 8.4062 0.14844 0.17578 0.29687 0.35156 0.44922 0.51953 0.94531 0.73047 2.1211 1.6133 3.5234 2.6523 3.9766 3.0352 6.7305 5.7383 8.2656 8.1094-0.125 0-0.25-0.039063-0.38281-0.10547-0.23828-0.11719-0.35938-0.33203-0.35938-0.64062h-2.2227c0.64844 1.6875 1.8359 3.5469 3.5742 5.5898l5.0391 5.4102c2.0703 2.2227 3.6055 4.168 4.6094 5.8281 1.2852 2.0977 2.043 4.207 2.2812 6.3242-0.84375-0.58594-1.5977-1.043-2.2461-1.3633-0.88672-0.37891-1.6016-0.71875-2.1562-1.0273h-0.73438c0.83203 1.6758 2.2148 4.8438 4.1289 9.5039 0.97656 2.3789 2.0898 5.1289 3.3516 8.2656 3.1016 7.7109 6.0469 13.898 8.8242 18.547-0.3125 0-1.1836-0.37109-2.5938-1.1094-1.2109-0.625-2.0117-0.98438-2.4062-1.0742-0.12891-0.23828-0.1875-0.46484-0.19922-0.67187v0.64062c0.058594 0 0.11719 0.007813 0.19922 0.03125 0.125 0.28516 0.30469 0.59766 0.54297 0.94141 0.49219 0.67578 0.74219 1.3398 0.74219 1.9844 0 2.2109-0.73438 5.5391-2.2227 9.9883-1.4805 4.4414-2.2305 7.9102-2.2305 10.395 0 2.5586 0.97656 6.0859 2.9375 10.609 0.98047 2.25 1.9844 4.2656 3.0039 6.0586h-1.4883c-0.18359 0-0.69141-0.1875-1.5117-0.57812-0.96484-0.45312-1.9102-0.98047-2.8398-1.5742-0.03125-0.019531-0.066406-0.042969-0.097656-0.066406 0.24609 0.49219 0.4375 1.2461 0.55469 2.2461 0.039063 0.29688 0.070313 0.62109 0.097656 0.96484 0.0625 0.83203 0.59375 3.5547 1.5977 8.1992 0.003906 0.066407 0.015624 0.125 0.023437 0.1875 0.57422 3.9766 1.2461 7.0508 2.0117 9.2266 1.1211 3.168 2.75 5.6641 4.8906 7.5078h-3.1289c-0.6875-0.38672-1.1992-0.67188-1.5312-0.86719-0.58203-0.32812-0.94141-0.56641-1.0859-0.69531h-0.51953c2.3477 6.6484 4.6992 11.961 7.0312 15.938 3.7188 6.3125 7.6562 9.9023 11.828 10.75-0.24609 0.71094-1.5469 1.0078-3.918 0.89844-2.5391-0.25391-4.043-0.37891-4.5-0.37891 0.074219 0.24609 0.14844 0.47656 0.22266 0.69531 2.9609 2.7461 6.4297 4.4531 10.43 5.1367 6.1953 1.7539 11.047 3.2578 14.566 4.5039 13.219 4.6992 19.824 9.5703 19.824 14.637 0 4.4609-3.707 7.3125-11.145 8.543-2.5508 0.42969-5.6445 0.67188-9.2969 0.73438-3.8516-0.023438-6.4219-0.027344-7.7305-0.027344-15.945 0-30.02-0.73828-42.242-2.2148-9.3711-1.1406-16.68-2.6523-21.926-4.5078-4.2422-2.1484-6.8984-5.1602-7.9844-9.0547-0.46094-1.625-0.64062-3.4102-0.52734-5.3438l-3.0703 5.0312c-2.3477-10.23-2.7266-20.629-1.1367-31.195 0.027344-0.019532 0.0625-0.039063 0.089844-0.050782v-0.53125c-0.027344 0.19922-0.0625 0.39453-0.089844 0.58203-0.88672 0.59766-1.8203 1.2969-2.8086 2.0938-0.78516 0.54297-1.7383 0.875-2.8477 0.98437 0.25-1.0312 0.49219-2.3008 0.71484-3.8203 0.21875-1.4883 0.32812-2.5625 0.32812-3.2344 0-2.5391-0.26953-4.9375-0.80859-7.1953-0.35547-1.4805-0.95703-3.293-1.8047-5.4336-0.91797-2.3438-1.5156-4.0156-1.7852-4.9961-0.54297-1.9336-0.82422-3.8867-0.82422-5.8711 0-0.91797 0.019531-1.6016 0.066406-2.0508 0.074218-0.73438 0.21484-1.332 0.42188-1.7852-0.48438 0.98047-1.1016 2.3281-1.8789 4.0391-0.68359 1.4414-1.2578 2.5-1.7344 3.1914-0.84375-2.3477-1.3164-3.9922-1.4531-4.9492-0.074218-0.59375-0.10937-2.3398-0.10937-5.2344 0-0.4375 0.16406-2.4805 0.51172-6.1367s0.52734-5.6953 0.52734-6.1289c0-1.5898-0.13672-2.957-0.40625-4.1016-0.14844-0.62109-0.44922-1.5117-0.89844-2.6758-0.81641-2.1094-1.2539-4.5547-1.2969-7.3398l-3.6562 4.4648c0.69531-6.8594-1.5859-13.32-6.8516-19.41-0.33984-0.39453-1.0977-0.91016-2.2734-1.5391 0.94141 3.4375 1.1289 8.5859 0.57812 15.457v0.73828c-0.33203 0-0.69531-0.15234-1.1016-0.47266-0.26172-0.17969-0.61719-0.50391-1.0859-0.97656-0.003906-0.26172-0.019531-0.51953-0.027343-0.78125v0.74219c0.007812 0.015626 0.023437 0.03125 0.027343 0.039063 0.097657 3.7305-0.44531 7.1836-1.6328 10.34-1.0078 2.6719-2.6055 5.3789-4.7773 8.1172-0.17188 0.21484-2.1211 2.4297-5.8438 6.6367-2.2578 2.5586-3.8594 4.8125-4.8203 6.7539l-0.76562-0.007812c0.29688-1.4688 0.67188-2.8516 1.1094-4.1523 0.49609-1.3789 0.86719-2.4609 1.1094-3.2695v-0.74219c-0.24609 0.14062-0.49219 0.28906-0.74219 0.44141-4.5781 2.6055-8.3477 5.9023-11.32 9.9023-0.19922 0.26953-0.38672 0.52734-0.57422 0.78516-3.6719 5.2461-5.6367 11.172-5.9023 17.797-0.80078-0.74219-1.3828-1.4961-1.7383-2.2578-0.49609-1.0703-0.66016-2.2891-0.48438-3.6758-0.78906 1.6016-2.0078 3.6094-3.6523 6.0039-0.93359 1.3398-2.3828 3.4297-4.3477 6.2383-3.5508 5.2578-5.5781 9.8164-6.082 13.695-0.88672-1.2656-1.668-2.582-2.3359-3.9336-0.47266 1.5742-0.70703 3.0117-0.70703 4.3047 0 0.83984 0.15625 1.6914 0.46875 2.5625v0.023437l-0.039062 0.007813c0.050781 0.085937 0.097656 0.15625 0.12891 0.22266 3.1523 5.1875 8.4062 9.5508 15.762 13.121 0.46875 0.23047 2.4609 1.1172 5.9766 2.6562 2.4688 1.0625 4.3906 2.0273 5.7695 2.9062 4.0195 2.5625 6.0391 5.8945 6.0391 10.008 0 3.543-2.2148 6.2578-6.6289 8.1406-3.5078 1.4922-7.6016 2.2461-12.273 2.2461-6.9336 0-14.359-1.0898-22.27-3.2578-8.2148-2.25-15.738-5.3555-22.562-9.3242-7.4492-4.3281-13.27-9.2266-17.465-14.699-4.6758-6.125-7.0078-12.598-7.0078-19.426 0-0.57813 0.11719-1.5117 0.36328-2.8125 0.19922-1.0547 0.74219-3.0703 1.6211-6.0391-0.046874 0.007813-0.097656 0.019531-0.14062 0.042969-1.7344 0.47656-3.5547 1.1875-5.4688 2.1367 1.0391-6.1719 2.6992-11.336 5-15.504 1.9102-3.4492 4.6875-6.9219 8.3438-10.43-0.49609 0-1.1133 0.11719-1.8555 0.37109-0.39453 0.13281-0.75 0.23047-1.0703 0.29297 1.0977-2.2266 3.2578-4.7812 6.4727-7.6875 1-0.88672 4.2656-3.582 9.8047-8.0586 4.2305-3.4336 7.4297-6.3359 9.6055-8.6992 3.0625-3.3359 5.0469-6.5273 5.9531-9.5742-1.6094 0-2.8125-0.027344-3.6133-0.09375-1.3828-0.10547-2.4062-0.31641-3.0625-0.64453 1.457-0.52734 2.8047-1.3008 4.0352-2.3242 3.6875-3.0781 6.3359-8.3984 7.9453-15.961 0.69141-3.2578 1.2852-7.4492 1.7773-12.555 0.52734-5.5469 0.86719-8.9492 1.0195-10.227 0.29688-0.17578 0.5625-0.31641 0.78906-0.44531l-0.75-0.003906c-0.007813 0.097656-0.023438 0.24609-0.050781 0.44531-0.93359 0.55859-2.1484 1.4023-3.6562 2.5195v-0.74219c1.5898-2.793 2.5156-4.7734 2.7656-5.9492 0.13281-0.60547 0.19531-2.4492 0.19531-5.5352v-0.26562c-1.0195-2.8359-2.2578-5.7969-3.7188-8.875-2.8789-5.6055-5-9.8086-6.3555-12.625-2.3906-4.9141-4.1523-9.375-5.2773-13.387-1.4727-5.2461-2.207-10.754-2.207-16.523 0-7.2188 2.1484-15.352 6.4492-24.414 1.1562-2.4453 2.4258-4.8555 3.8125-7.2305-1.7578 2.0547-3.5078 3.9766-5.2656 5.7734-2.9023 2.9492-5.8164 5.5469-8.7383 7.7812-2.9727 4.1484-5.7031 7.7148-8.1758 10.688-6.6953 8.0312-13.531 14.109-20.492 18.234-8.7266 5.1758-18.285 7.7656-28.68 7.7656-2.1602 0-5.5039-0.39453-10.035-1.1836-5.0195-0.86719-9.8125-1.9492-14.402-3.2617-0.73047-0.20703-1.4414-0.41797-2.125-0.625-10.941-3.3438-16.418-6.8398-16.418-10.504 0-0.83203 0.23828-1.5781 0.71484-2.2344 0.70703-0.98438 1.8242-1.4805 3.3516-1.4805 0.65234 0 2.4727 0.49609 5.457 1.4922 2.9844 0.98438 5.2422 1.4805 6.7773 1.4805h0.11719c2.1602-0.015625 4.2969-0.31641 6.4141-0.89453 1.1406-1.5352 2.8164-3.1484 5.0352-4.8438 1.6445-1.2852 3.3867-2.4336 5.2227-3.457 1.6094-0.89062 2.7852-1.4336 3.5234-1.6211-0.98438 0-2.3398-0.24219-4.0664-0.73828-1.7344-0.49219-3.0977-0.74219-4.0859-0.74219 3.75-0.56641 7.2539-2.9297 10.508-7.1055 1.2539-1.5898 2.6367-3.6562 4.1523-6.2031 1.7578-3.0312 3.0859-5.3086 3.9961-6.8398 3.3594-5.7734 6.4141-9.918 9.1641-12.441 1.8086-1.6445 3.7422-2.8984 5.7812-3.7539 0.57422-0.38672 1.1602-0.72266 1.7617-1.0234-0.83203-0.41016-1.7344-0.75781-2.6914-1.0195-1.1289-0.3125-2.207-0.46484-3.2344-0.46484 0-0.24609 0.125-0.49219 0.36328-0.73438 0.25-0.25391 0.37891-0.50391 0.37891-0.74219 3.1875-1.332 6.2617-3.4102 9.2266-6.2266 2.0234-1.9141 4.5078-4.75 7.4688-8.5117 3.5742-4.5547 5.9961-7.5352 7.2617-8.9258 2.8906-3.2031 5.7734-5.6914 8.6523-7.4688-0.98438-0.49219-1.7227-0.83203-2.2227-1.0195-0.82422-0.3125-1.5508-0.46875-2.1953-0.46875z" fill="#ffb258" fill-rule="evenodd"/>
</svg>
