<?xml version="1.0" encoding="iso-8859-1"?>
<!-- Generator: Adobe Illustrator 18.0.0, SVG Export Plug-In . SVG Version: 6.00 Build 0)  -->
<!DOCTYPE svg PUBLIC "-//W3C//DTD SVG 1.1//EN" "http://www.w3.org/Graphics/SVG/1.1/DTD/svg11.dtd">
<svg version="1.1" id="Capa_1" xmlns="http://www.w3.org/2000/svg" xmlns:xlink="http://www.w3.org/1999/xlink" x="0px" y="0px"
	 viewBox="0 0 51.615 51.615" style="enable-background:new 0 0 51.615 51.615;" xml:space="preserve">
<g>
	<path style="fill:#EEAF4B;" d="M47.923,33.056c0.388-0.431,0.935-0.702,1.587-0.755c0.217-0.018,0.446-0.011,0.685,0.021
		c0.198,0.027,0.394,0.077,0.587,0.14c0.178,0.054,0.352,0.127,0.525,0.206v-2.234c0-1.875-0.871-3.644-2.357-4.788L31.54,9.176
		c-0.549,0.451-1.343,0.605-2.237,0.329c-1.654-0.512-2.995-2.268-2.995-3.923c0-0.426,0.091-0.801,0.251-1.118l-2.98-2.819
		C21.407-0.01,18.97-0.37,17.308,0.357L2.479,7.51c-1.341,0.579-2.172,1.94-2.172,3.44c0,0.012,0,0.012,0,0.009v15.747
		c0.463-0.085,0.976-0.066,1.527,0.105c1.918,0.594,3.473,2.63,3.473,4.548s-1.555,2.992-3.473,2.398
		c-0.551-0.17-1.064-0.469-1.527-0.841v2.163c0,1.688,1.149,3.159,2.786,3.568l43.644,12.857c2.321,0.58,4.57-1.175,4.57-3.568
		v-8.341l-0.001,0c-0.939-0.152-1.85-0.677-2.567-1.417c-0.016-0.016-0.029-0.035-0.044-0.052c-0.161-0.17-0.314-0.347-0.453-0.536
		c-0.046-0.062-0.081-0.131-0.124-0.195c-0.1-0.15-0.203-0.298-0.287-0.457c-0.067-0.125-0.115-0.258-0.171-0.388
		c-0.045-0.105-0.101-0.208-0.138-0.315c-0.084-0.242-0.148-0.489-0.189-0.739c-0.041-0.252-0.057-0.494-0.05-0.725
		c0.014-0.462,0.122-0.879,0.307-1.233C47.682,33.36,47.794,33.199,47.923,33.056z"/>
	<path style="fill:#FCDF76;" d="M50.196,32.322c0.379,0.052,0.751,0.181,1.112,0.346v-2.235c0-1.735-1.212-3.233-2.908-3.596
		l-19.167-5.708c0.01,0.103,0.03,0.206,0.03,0.308c0,1.655-1.341,2.581-2.995,2.068c-1.654-0.512-2.995-2.268-2.995-3.923
		c0-0.078,0.017-0.147,0.023-0.222L2.244,13.091c-1.171-0.225-1.746-1.116-1.871-2.126L0.308,10.95v15.755
		c0.463-0.085,0.976-0.066,1.527,0.105c1.918,0.594,3.473,2.63,3.473,4.548s-1.555,2.992-3.473,2.398
		c-0.551-0.17-1.064-0.469-1.527-0.841v2.163c0,1.688,1.149,3.159,2.786,3.568l43.644,12.857c2.321,0.58,4.57-1.175,4.57-3.568
		v-8.341c-1.88-0.304-3.649-2.115-3.975-4.099C47.002,33.482,48.284,32.061,50.196,32.322z"/>
	<path style="fill:#F4C44E;" d="M26.124,32.007c0,2.254-1.827,3.515-4.081,2.818c-2.254-0.698-4.081-3.09-4.081-5.344
		s1.827-3.515,4.081-2.818S26.124,29.753,26.124,32.007z"/>
	<path style="fill:#EEAF4B;" d="M22.043,26.663c-1.672-0.518-3.106,0.047-3.736,1.292c0.63,1.635,2.064,3.087,3.736,3.605
		s3.106-0.047,3.736-1.292C25.149,28.633,23.715,27.18,22.043,26.663z"/>
	<path style="fill:#F4C44E;" d="M43.021,37.539c0,1.578-1.279,2.461-2.857,1.972c-1.578-0.488-2.857-2.163-2.857-3.741
		c0-1.578,1.279-2.461,2.857-1.972C41.742,34.287,43.021,35.962,43.021,37.539z"/>
	<path style="fill:#EEAF4B;" d="M15.021,35.539c0,1.578-1.279,2.461-2.857,1.972s-2.857-2.163-2.857-3.741
		c0-1.578,1.279-2.461,2.857-1.972S15.021,33.962,15.021,35.539z"/>
	<path style="fill:#EEAF4B;" d="M35.021,43.165c0,1.025-0.831,1.599-1.857,1.282c-1.025-0.317-1.857-1.406-1.857-2.431
		s0.831-1.599,1.857-1.282C34.19,41.051,35.021,42.139,35.021,43.165z"/>
	<path style="fill:#EEAF4B;" d="M34.308,31.277c0,1.025-0.831,1.599-1.857,1.282c-1.025-0.317-1.857-1.406-1.857-2.431
		s0.831-1.599,1.857-1.282C33.476,29.163,34.308,30.251,34.308,31.277z"/>
	<path style="fill:#F4C44E;" d="M9.308,20.775c0,1.127-0.914,1.758-2.04,1.409c-1.127-0.349-2.04-1.545-2.04-2.672
		s0.914-1.758,2.04-1.409S9.308,19.648,9.308,20.775z"/>
	<path style="fill:#F4C44E;" d="M29.263,21.437c0,1.654-1.341,2.58-2.995,2.068c-1.654-0.512-2.995-2.268-2.995-3.923
		c0-1.654,1.341-2.58,2.995-2.068C27.921,18.026,29.263,19.782,29.263,21.437z"/>
</g>
<g>
</g>
<g>
</g>
<g>
</g>
<g>
</g>
<g>
</g>
<g>
</g>
<g>
</g>
<g>
</g>
<g>
</g>
<g>
</g>
<g>
</g>
<g>
</g>
<g>
</g>
<g>
</g>
<g>
</g>
</svg>
