<?xml version="1.0" encoding="utf-8"?>
<!-- Generator: Adobe Illustrator 24.1.1, SVG Export Plug-In . SVG Version: 6.00 Build 0)  -->
<svg version="1.1" id="Layer_1" xmlns="http://www.w3.org/2000/svg" xmlns:xlink="http://www.w3.org/1999/xlink" x="0px" y="0px"
	 viewBox="0 0 512 512" style="enable-background:new 0 0 512 512;" xml:space="preserve">
<style type="text/css">
	.st0{fill:#96CA4B;}
	.st1{fill:#5F7FBF;}
</style>
<g>
	<path class="st0" d="M140.7,322c-16.1,0-28.3-4.7-36.6-14.1c-8.4-9.4-12.5-22.8-12.5-40.3c0-17.9,4.3-31.6,13.1-41.2
		s21.3-14.4,37.9-14.4c11.2,0,21.3,2,30.2,6.2l-6.8,18.1c-9.5-3.7-17.4-5.6-23.6-5.6c-18.4,0-27.5,12.2-27.5,36.5
		c0,11.9,2.3,20.8,6.8,26.9c4.6,6,11.3,9,20.2,9c10,0,19.5-2.5,28.5-7.5v19.6c-4.1,2.4-8.4,4.1-12.9,5.1
		C152.7,321.5,147.1,322,140.7,322"/>
	<rect x="209.9" y="170.8" class="st0" width="22.6" height="149.3"/>
	<path class="st1" d="M268.5,367.3c-6.7,0-12.4-0.8-16.9-2.4V347c4.3,1.1,8.7,1.8,13.3,1.8c9.6,0,14.4-5.4,14.4-16.3V213.9H302v120
		c0,10.9-2.9,19.3-8.6,24.8C287.6,364.5,279.3,367.3,268.5,367.3z M278.1,185.9c0-4.1,1.1-7.1,3.3-9.3c2.2-2.2,5.3-3.3,9.5-3.3
		c3.9,0,7.1,1.1,9.3,3.3c2.2,2.2,3.3,5.3,3.3,9.3c0,3.8-1.1,6.8-3.3,9.1c-2.2,2.2-5.3,3.3-9.3,3.3c-4.1,0-7.2-1.1-9.5-3.3
		C279.1,192.8,278.1,189.7,278.1,185.9z"/>
	<path class="st1" d="M420.1,290c0,10.4-3.8,18.3-11.3,23.8c-7.6,5.6-18.4,8.2-32.4,8.2c-14.2,0-25.5-2.2-34.1-6.5V296
		c12.4,5.7,24.1,8.6,34.9,8.6c13.8,0,20.8-4.2,20.8-12.5c0-2.7-0.8-4.9-2.3-6.7c-1.5-1.8-4.1-3.7-7.6-5.6c-3.5-1.9-8.4-4.1-14.7-6.5
		c-12.2-4.7-20.5-9.5-24.8-14.2c-4.3-4.7-6.5-10.9-6.5-18.4c0-9.1,3.7-16.1,11-21.2c7.3-5.1,17.2-7.5,29.9-7.5
		c12.4,0,24.2,2.5,35.4,7.6l-7.3,17c-11.4-4.7-21-7.1-28.9-7.1c-11.9,0-17.9,3.4-17.9,10.1c0,3.3,1.5,6.1,4.7,8.5
		c3,2.3,9.9,5.5,20.3,9.5c8.7,3.4,15.1,6.5,19.1,9.3c3.9,2.8,6.8,6.1,8.9,9.8C419.1,280.3,420.1,284.8,420.1,290"/>
	<path class="st0" d="M236.1,33.8l3.5-0.3V0.4l-4.1,0.3C171.5,5.9,112.2,34.7,68.4,82C24.3,129.5,0,191.3,0,256
		c0,64.7,24.3,126.5,68.4,174c43.8,47.2,103.2,76.1,167.1,81.2l4.1,0.3v-33.2l-3.5-0.3c-55.2-4.9-106.4-30.2-144.2-71.3
		C53.9,365.5,33,311.9,33,255.9c0-56,20.9-109.6,58.9-150.8C129.7,64,180.9,38.7,236.1,33.8"/>
	<path class="st1" d="M443.6,82C399.8,34.7,340.5,5.9,276.6,0.8l-4.1-0.3v33.1l3.5,0.3c55.2,4.9,106.4,30.2,144.2,71.3
		C458.1,146.4,479,200,479,256c0,56-20.9,109.6-58.9,150.9c-37.8,41.1-89,66.4-144.2,71.3l-3.5,0.3v33.1l4.1-0.3
		c63.9-5.1,123.2-34,167.1-81.2c44.1-47.5,68.4-109.3,68.4-174C512,191.3,487.7,129.5,443.6,82"/>
</g>
</svg>
