<?xml version="1.0" encoding="utf-8"?>
<!-- Generator: Adobe Illustrator 24.1.1, SVG Export Plug-In . SVG Version: 6.00 Build 0)  -->
<svg version="1.1" id="Layer_1" xmlns="http://www.w3.org/2000/svg" xmlns:xlink="http://www.w3.org/1999/xlink" x="0px" y="0px"
	 viewBox="0 0 512 512" style="enable-background:new 0 0 512 512;" xml:space="preserve">
<style type="text/css">
	.st0{fill:#FFFFFF;}
	.st1{fill:#91DC47;}
	.st2{fill:#63B132;}
	.st3{fill:#90B4FE;}
	.st4{fill:#5881D8;}
</style>
<g>
	<path class="st0" d="M256,0C114.8,0,0,114.8,0,256c0,141.2,114.8,256,256,256c141.2,0,256-114.8,256-256C512,114.8,397.2,0,256,0"
		/>
	<path class="st1" d="M246.6,260.6c-2.3,5-4.8,10.6-7.5,16.5c-9.3,21-19.6,46.7-23.3,63.1c-1.3,5.8-2.2,13.1-2.2,21.1
		c0,3.2,0.2,6.5,0.4,9.9c13.1,4.8,27.3,7.5,42.1,7.5c13.5,0,26.4-2.3,38.6-6.3c-2.8-2.6-5.6-5.4-8-8.5
		C270.3,343,261.1,312.3,246.6,260.6"/>
	<path class="st1" d="M185.9,156.4c-31.4,22.1-51.9,58.6-52,100c0.1,40.7,20,76.8,50.6,99c7.5-31.3,26.3-59.9,54.5-117.3
		c-1.7-4.6-3.6-9.6-5.7-14.9c-7.8-19.6-19.1-42.4-29.2-52.7C199.1,165.1,192.8,160.4,185.9,156.4"/>
	<path class="st2" d="M362.8,396.7c-16.2-2-29.6-4.5-41.3-8.6c-19.7,9.8-41.8,15.3-65.3,15.3c-81.2,0-147-65.8-147-147
		c0-44.1,19.4-83.5,50.1-110.5c-8.2-2-16.8-3.1-25.5-3.1c-43.1,0.4-88.6,24.3-107.6,88.7c-1.8,9.4-1.3,16.5-1.3,24.9
		c0,127.8,103.6,231.3,231.3,231.3c78.2,0,147.4-38.9,189.2-98.3c-22.6,5.6-44.4,8.3-63.1,8.4C375.4,397.8,368.9,397.5,362.8,396.7"
		/>
	<path class="st3" d="M319.3,351.9c1.4,0.7,4.7,1.9,9.2,3.1c30.3-22.3,50-58.1,50.1-98.6h0c-0.1-67.5-54.8-122.2-122.3-122.3
		c-13.4,0-26.3,2.2-38.4,6.2c24.8,28.3,36.8,68.8,48.3,113l0,0.1c0,0,3.7,12.3,10,28.5c6.3,16.2,15.2,36.3,24.9,51
		C307.5,342.8,314.5,349.8,319.3,351.9"/>
	<path class="st4" d="M256.2,25.1c-77.5,0-146,38.1-188,96.6c21.9-13.7,44.2-18.6,63.6-18.4c26.9,0.1,48,8.4,58.2,14.1
		c2.5,1.4,4.8,2.9,7.1,4.5c18.1-8,38.1-12.4,59.1-12.4c81.2,0,147,65.8,147,147h0c0,40.9-16.7,77.9-43.7,104.6
		c6.6,0.7,13.7,1.2,20.9,1.2c25.6,0,53.3-5.6,74.1-23.1c13.5-11.4,24.9-28.1,31.2-53.1c1.2-9.7,1.9-19.5,1.9-29.5
		C487.6,128.7,384,25.1,256.2,25.1"/>
</g>
</svg>
