<?xml version="1.0" encoding="utf-8"?>
<!-- Generator: Adobe Illustrator 24.1.1, SVG Export Plug-In . SVG Version: 6.00 Build 0)  -->
<svg version="1.1" id="Layer_1" xmlns="http://www.w3.org/2000/svg" xmlns:xlink="http://www.w3.org/1999/xlink" x="0px" y="0px"
	 viewBox="0 0 512 512" style="enable-background:new 0 0 512 512;" xml:space="preserve">
<style type="text/css">
	.st0{fill:#444444;}
</style>
<g>
	<path class="st0" d="M245.3,260.6c-2.5,5.5-5.4,11.7-8.2,18.3c-10.3,23.3-21.7,51.6-25.8,69.8c-1.5,6.5-2.4,14.5-2.4,23.4
		c0,3.5,0.2,7.2,0.5,11c14.5,5.4,30.2,8.3,46.6,8.3c14.9,0,29.3-2.5,42.7-7c-3.2-2.9-6.1-5.9-8.9-9.4
		C271.5,351.8,261.4,317.8,245.3,260.6L245.3,260.6z M255.9,0c-4.8,0-9.6,0.2-14.3,0.4l-1.8,0.1L234.2,1l-2.6,0.2l-5.2,0.6l-2.8,0.3
		l-5,0.7l-3,0.4L210.8,4l-3,0.5l-4.8,1l-3,0.6l-4.8,1.1l-2.9,0.7l-4.8,1.3l-2.8,0.8l-4.8,1.4l-2.7,0.9l-4.8,1.6l-2.5,0.9l-4.9,1.8
		l-2.2,0.8l-5.1,2l-1.8,0.7l-5.4,2.4L150,23c-11,5-21.5,10.8-31.6,17.2l-0.8,0.5l-5.1,3.4l-1.3,0.9l-4.7,3.3l-1.5,1.1l-4.5,3.4
		l-1.6,1.3l-4.3,3.4L93,58.7l-4.1,3.5l-1.7,1.5l-4,3.6l-1.7,1.5l-3.9,3.7L76.1,74l-3.8,3.8l-1.5,1.6l-3.7,4L65.7,85L62,89.1
		l-1.2,1.4L57.1,95l-0.9,1.1l-4.5,5.7l-0.3,0.4L48,107c24.2-15.1,48.8-20.6,70.4-20.4c29.8,0.1,53.2,9.3,64.4,15.6
		c2.7,1.6,5.3,3.3,7.8,5c20-8.8,42.2-13.8,65.5-13.8c89.8,0,162.6,72.8,162.7,162.6c0,45.3-18.5,86.2-48.4,115.7
		c7.3,0.8,15.1,1.3,23.1,1.3c28.4,0,59-6.2,82-25.6c15-12.6,27.5-31.1,34.5-58.8c1.4-10.7,2.1-21.6,2.1-32.7
		C512,114.6,397.4,0,256,0L255.9,0z M373.8,411.3c-17.9-2.2-32.7-5-45.7-9.5c-21.8,10.8-46.3,16.9-72.2,16.9
		c-89.8,0-162.6-72.8-162.6-162.6c0-48.7,21.5-92.4,55.5-122.3c-9.1-2.2-18.6-3.5-28.2-3.5c-47.7,0.4-98.1,26.8-119,98.1L1,233.3
		L0.9,235l-0.3,3.6L0.4,242l-0.2,5.1l-0.1,1.8C0,251.3,0,253.6,0,256c0,141.4,114.6,256,256,256h0.1c2.7,0,5.4-0.1,8.1-0.1l2.8-0.1
		l5.3-0.3l3.4-0.3l4.7-0.4l3.6-0.4l4.4-0.5l3.7-0.5l4.2-0.6l3.8-0.6l4.1-0.7l3.8-0.8l3.9-0.8l3.8-0.9l3.8-0.9l3.9-1l3.7-1l3.9-1.2
		l3.6-1.1l3.9-1.3l3.5-1.2l3.9-1.5l3.4-1.3l3.9-1.6l3.3-1.4l3.9-1.7l3.1-1.4l3.9-1.9l3-1.5l3.9-2l2.9-1.5l3.9-2.1l2.7-1.6l3.9-2.3
		l2.6-1.6l4-2.5l2.4-1.6l4-2.7l2.2-1.6l4-2.9l2-1.5l4.1-3.1l1.8-1.4l4.2-3.4l1.5-1.2l4.4-3.8l1-0.9l4.7-4.3l0.3-0.3l5.1-4.9l1.9-1.9
		l3.1-3.2l2.2-2.3l2.6-2.8l2.3-2.6l2.2-2.6l2.5-2.9l1.9-2.3l2.6-3.3l0.9-1.2c2.4-3.1,4.7-6.2,7-9.4v0c-25.1,6.3-49.2,9.2-69.8,9.3
		C387.8,412.5,380.5,412.1,373.8,411.3L373.8,411.3z M325.7,361.7c1.6,0.8,5.2,2.1,10.2,3.5c33.6-24.6,55.4-64.3,55.4-109.1
		c-0.1-74.7-60.6-135.2-135.4-135.4c-14.9,0-29.1,2.5-42.5,6.9c27.5,31.3,40.7,76.1,53.5,125.1l0,0.1c0,0,4.1,13.6,11.1,31.6
		c6.9,18,16.8,40.2,27.6,56.4C312.7,351.5,320.4,359.3,325.7,361.7L325.7,361.7z M178.1,145.4c-34.7,24.5-57.5,64.9-57.6,110.6
		c0.1,45.1,22.1,85,56,109.5c8.3-34.6,29.1-66.3,60.4-129.8c-1.9-5.1-4-10.7-6.3-16.5c-8.7-21.7-21.1-46.9-32.3-58.3
		C192.6,155,185.7,149.8,178.1,145.4L178.1,145.4z"/>
</g>
</svg>
