<svg xmlns="http://www.w3.org/2000/svg" enable-background="new 0 0 24 24" viewBox="0 0 24 24"><path d="M13.956 17.736c-.014.005-.03.006-.044.011l.001.001L13.956 17.736zM10.056 6.263c.014-.005.03-.006.044-.011l-.001-.001L10.056 6.263z"/><path fill="#60AB31" d="M1.106,9.624c-0.088,0.464-0.069,1.709-0.069,2.126c0,6.328,4.636,11.711,10.965,11.711c3.876,0,7.299-1.926,9.373-4.871c-1.121,0.28-2.201,0.413-3.124,0.416c-0.346,0-0.671-0.019-0.973-0.055v-0.002c-0.802-0.1-1.464-0.222-2.045-0.426C14.291,19,13.179,19.28,12.001,19.28c-4.021,0-6.784-4.405-6.785-8.425c0-0.002,0-0.004,0-0.006c0-2.176,0.958-4.128,2.474-5.458L7.7,5.385C7.32,5.287,6.884,5.231,6.436,5.23H6.435C4.3,5.249,2.045,6.431,1.106,9.624z"/><path fill="#8DD646" d="M10.846,10.264c-0.489-1.106-1.183-2.383-1.78-2.951C8.753,7.015,8.4,6.761,8.016,6.559L7.992,6.548c-1.76,1.348-2.848,3.474-2.763,5.829c0.088,2.32,1.297,4.333,3.084,5.539l0.02,0.014c0.364-1.804,1.379-3.481,2.872-6.823C11.1,10.846,10.98,10.562,10.846,10.264z"/><path fill="#8CAFF6" d="M15.969,17.959c0.093,0.037,0.302,0.094,0.59,0.152c1.802-1.562,2.853-3.902,2.659-6.433l0-0.001l-0.003,0c-0.339-4.235-4.042-7.398-8.278-7.071C10.095,4.674,9.298,4.879,8.56,5.189c1.698,1.653,2.646,4.131,3.588,6.85l0.001,0.004c0.001,0.002,0.293,0.752,0.767,1.741c0.474,0.987,1.134,2.205,1.816,3.076C15.182,17.446,15.659,17.853,15.969,17.959z"/><path fill="#8DD646" d="M12.191,19.274c0.831-0.002,2.558-1.105,3.306-1.344c-0.179-0.156-0.34-0.32-0.488-0.497l-0.007-0.008c-1.015-1.25-2.509-2.11-3.404-5.186c-0.142,0.297-0.298,0.63-0.46,0.985c-0.573,1.253-1.208,2.778-1.439,3.755c-0.084,0.36-0.133,0.774-0.133,1.198c0,0.02,0,0.04,0,0.06c0,0.188,0.011,0.387,0.026,0.59C10.403,19.113,11.277,19.271,12.191,19.274z"/><path fill="#567DD2" d="M11.867,1.114c-0.002,0-0.004,0-0.005,0c-3.727,0-7.028,1.923-9.055,4.877L2.784,6.025C3.84,5.329,4.918,5.078,5.859,5.087c1.298,0.004,2.32,0.427,2.81,0.717C8.787,5.876,8.9,5.953,9.009,6.033c0.841-0.399,1.823-0.631,2.856-0.631c3.921,0,7.101,3.344,7.102,7.468c0,0.002,0,0.005,0,0.007c0,2.077-0.808,3.956-2.111,5.307l-0.001,0.001c0.32,0.037,0.66,0.062,1.01,0.06c1.237,0,2.576-0.287,3.578-1.174c0.655-0.58,1.202-1.428,1.506-2.701c0.06-0.492,0.093-0.992,0.093-1.5C23.042,6.378,18.04,1.114,11.867,1.114z"/><path d="M12,24C5.383,24,0,18.617,0,12S5.383,0,12,0s12,5.383,12,12S18.617,24,12,24z M12,1.5C6.21,1.5,1.5,6.21,1.5,12S6.21,22.5,12,22.5S22.5,17.79,22.5,12S17.79,1.5,12,1.5z"/><path d="M12,20c-4.411,0-8-3.589-8-8s3.589-8,8-8s8,3.589,8,8S16.411,20,12,20z M12,5.5c-3.584,0-6.5,2.916-6.5,6.5s2.916,6.5,6.5,6.5s6.5-2.916,6.5-6.5S15.584,5.5,12,5.5z"/><path d="M18,19.25c-4.66,0-5.977-4.017-7.139-7.561C9.649,7.994,8.717,5.75,6,5.75c-1.812,0-2.398,0.418-3.204,1.102C2.481,7.118,2.008,7.08,1.739,6.764C1.472,6.448,1.511,5.975,1.827,5.707C2.833,4.854,3.722,4.25,6,4.25c4,0,5.214,3.704,6.286,6.972c1.101,3.357,2.141,6.528,5.714,6.528c1.698,0,2.792-0.731,3.722-1.521c0.316-0.268,0.79-0.229,1.057,0.085c0.269,0.315,0.23,0.789-0.085,1.057C21.601,18.3,20.188,19.25,18,19.25z"/><path d="M8.812,19.262c-0.019,0-0.037,0-0.055-0.002c-0.413-0.03-0.724-0.389-0.694-0.802c0.199-2.759,2.682-7.142,2.788-7.328c0.205-0.36,0.662-0.486,1.022-0.28c0.36,0.205,0.485,0.663,0.281,1.022c-0.024,0.042-2.42,4.273-2.595,6.693C9.53,18.961,9.201,19.262,8.812,19.262z"/></svg>