<?xml version="1.0" encoding="iso-8859-1"?>
<!-- Uploaded to: SVG Repo, www.svgrepo.com, Generator: SVG Repo Mixer Tools -->
<svg fill="#000000" height="800px" width="800px" version="1.1" id="Layer_1" xmlns="http://www.w3.org/2000/svg" xmlns:xlink="http://www.w3.org/1999/xlink" 
	 viewBox="0 0 512.002 512.002" xml:space="preserve">
<g>
	<g>
		<path d="M491.917,312.599c-17.144-17.143-38.916-31.057-64.722-41.404h-134.55l95.513,95.513l-21.466,21.466l-95.513-95.513
			v134.55c10.347,25.805,24.261,47.578,41.405,64.721c13.377,13.377,30.955,20.066,48.527,20.068
			c17.576,0.001,35.146-6.688,48.527-20.068c12.625-12.625,19.751-29.425,20.067-47.304l0.259-14.65l14.65-0.259
			c17.88-0.317,34.68-7.443,47.305-20.068C518.675,382.894,518.675,339.356,491.917,312.599z"/>
	</g>
</g>
<g>
	<g>
		<path d="M145.309,388.174l-21.466-21.466l95.513-95.513H84.806c-25.805,10.347-47.578,24.261-64.721,41.405
			c-26.757,26.757-26.757,70.295,0,97.053c12.625,12.625,29.425,19.751,47.304,20.067l14.65,0.259l0.259,14.65
			c0.317,17.88,7.443,34.68,20.068,47.305c26.756,26.756,70.294,26.757,97.053,0c17.142-17.146,31.056-38.917,41.403-64.724v-134.55
			L145.309,388.174z"/>
	</g>
</g>
<g>
	<g>
		<path d="M491.917,102.379c-12.625-12.625-29.425-19.751-47.304-20.067l-14.65-0.259l-0.259-14.65
			c-0.317-17.88-7.443-34.68-20.067-47.304C396.675,7.139,379.441,0,361.11,0c-18.331,0-35.564,7.138-48.527,20.1
			c-17.143,17.144-31.057,38.915-41.404,64.721v134.551l95.513-95.513l21.466,21.466l-95.513,95.513h134.55
			c25.805-10.347,47.578-24.261,64.721-41.405C518.675,172.675,518.675,129.137,491.917,102.379z"/>
	</g>
</g>
<g>
	<g>
		<path d="M240.822,219.371V84.821c-10.347-25.805-24.261-47.578-41.405-64.72C186.041,6.724,168.463,0.032,150.891,0.032
			c-17.576,0-35.146,6.688-48.527,20.068C89.74,32.725,82.614,49.524,82.298,67.404l-0.259,14.65l-14.65,0.259
			c-17.88,0.317-34.68,7.443-47.305,20.068c-26.755,26.757-26.755,70.295,0.001,97.052c17.144,17.143,38.917,31.057,64.721,41.404
			h134.55l-95.513-95.513l21.466-21.466L240.822,219.371z"/>
	</g>
</g>
</svg>