<?xml version="1.0" encoding="iso-8859-1"?>
<!-- Uploaded to: SVG Repo, www.svgrepo.com, Generator: SVG Repo Mixer Tools -->
<svg height="800px" width="800px" version="1.1" id="Layer_1" xmlns="http://www.w3.org/2000/svg" xmlns:xlink="http://www.w3.org/1999/xlink" 
	 viewBox="0 0 512 512" xml:space="preserve">
<path style="fill:#7EAF31;" d="M178.736,512c-2.359,0-4.717-0.899-6.518-2.7c-3.599-3.599-3.598-9.435,0.001-13.033
	c81.329-81.309,74.657-213.411,74.581-214.736c-0.295-5.081,3.584-9.44,8.667-9.735c5.098-0.301,9.44,3.586,9.735,8.667
	c0.084,1.441,1.949,35.827-6.836,81.238c-8.152,42.139-27.454,101.953-73.113,147.601C183.452,511.101,181.094,512,178.736,512z"/>
<path style="fill:#8CC63F;" d="M427.082,161.402c-25.124-13.737-58.485-11.703-92.065-1.543
	c24.589-24.4,41.987-52.391,41.987-80.711C377.003,35.436,346.906,0,309.78,0C280.078,0,256,28.348,256,63.319
	C256,28.348,231.922,0,202.221,0c-37.127,0-67.224,35.436-67.224,79.148c0,28.32,17.397,56.311,41.987,80.711
	c-33.579-10.16-66.94-12.192-92.065,1.543c-38.354,20.969-55.01,64.377-37.199,96.952c14.248,26.062,50.672,33.588,81.356,16.812
	c-30.683,16.776-44.007,51.501-29.759,77.562c17.81,32.577,63.341,41.986,101.695,21.016c29.043-15.878,46.29-52.391,54.989-92.75
	c8.699,40.359,25.946,76.871,54.989,92.75c38.354,20.969,83.885,11.561,101.695-21.016c14.248-26.06,0.924-60.786-29.759-77.562
	c30.683,16.776,67.108,9.248,81.356-16.812C482.091,225.779,465.436,182.372,427.082,161.402z"/>
</svg>