<?xml version="1.0" encoding="utf-8"?>

<!DOCTYPE svg PUBLIC "-//W3C//DTD SVG 1.1//EN" "http://www.w3.org/Graphics/SVG/1.1/DTD/svg11.dtd">
<!-- Uploaded to: SVG Repo, www.svgrepo.com, Generator: SVG Repo Mixer Tools -->
<svg height="800px" width="800px" version="1.1" id="_x32_" xmlns="http://www.w3.org/2000/svg" xmlns:xlink="http://www.w3.org/1999/xlink" 
	 viewBox="0 0 512 512"  xml:space="preserve">
<style type="text/css">
	.st0{fill:#000000;}
</style>
<g>
	<path class="st0" d="M368.004,193.98c-13.813,0-27.05,2.471-39.295,6.985c25.007-20.845,40.926-52.223,40.926-87.324
		C369.635,50.869,318.766,0,256.001,0c-62.756,0-113.649,50.869-113.649,113.641c0,35.101,15.927,66.471,40.934,87.316
		c-12.24-4.506-25.474-6.977-39.278-6.977c-62.764,0-113.644,50.877-113.644,113.641c0,62.764,50.88,113.642,113.644,113.642
		c40.261,0,75.527-21.004,95.711-52.58C235.026,416.526,222.073,480.4,187.313,512c68.688,0,68.688,0,68.688,0s0,0,68.696,0
		c-34.764-31.6-47.717-95.474-52.405-143.317c20.18,31.576,55.45,52.58,95.711,52.58c62.76,0,113.633-50.878,113.633-113.642
		C481.637,244.857,430.764,193.98,368.004,193.98z"/>
</g>
</svg>