<!DOCTYPE svg PUBLIC "-//W3C//DTD SVG 1.1//EN" "http://www.w3.org/Graphics/SVG/1.1/DTD/svg11.dtd">
<!-- Uploaded to: SVG Repo, www.svgrepo.com, Transformed by: SVG Repo Mixer Tools -->
<svg fill="#f0a3ed" width="800px" height="800px" viewBox="0 0 32 32" id="icon" xmlns="http://www.w3.org/2000/svg" stroke="#f0a3ed">
<g id="SVGRepo_bgCarrier" stroke-width="0"/>
<g id="SVGRepo_tracerCarrier" stroke-linecap="round" stroke-linejoin="round"/>
<g id="SVGRepo_iconCarrier">
<defs>
<style>.cls-1{fill:none;}</style>
</defs>
<title>HTTP</title>
<path d="M30,11H25V21h2V18h3a2.0027,2.0027,0,0,0,2-2V13A2.0023,2.0023,0,0,0,30,11Zm-3,5V13h3l.001,3Z" transform="translate(0 0)"/>
<polygon points="10 13 12 13 12 21 14 21 14 13 16 13 16 11 10 11 10 13"/>
<polygon points="23 11 17 11 17 13 19 13 19 21 21 21 21 13 23 13 23 11"/>
<polygon points="6 11 6 15 3 15 3 11 1 11 1 21 3 21 3 17 6 17 6 21 8 21 8 11 6 11"/>
<rect id="_Transparent_Rectangle_" data-name="&lt;Transparent Rectangle&gt;" class="cls-1" width="32" height="32"/>
</g>
</svg>