<?xml version="1.0" standalone="no"?>
<!DOCTYPE svg PUBLIC "-//W3C//DTD SVG 20010904//EN"
 "http://www.w3.org/TR/2001/REC-SVG-20010904/DTD/svg10.dtd">
<svg version="1.0" xmlns="http://www.w3.org/2000/svg"
 width="1453.000000pt" height="794.000000pt" viewBox="0 0 1453.000000 794.000000"
 preserveAspectRatio="xMidYMid meet">

<g transform="translate(0.000000,794.000000) scale(0.100000,-0.100000)"
fill="#000000" stroke="none">
<path d="M3934 7694 c-248 -41 -474 -157 -660 -336 -188 -181 -305 -396 -361
-658 -24 -117 -24 -372 1 -488 84 -391 326 -707 674 -881 90 -45 253 -98 348
-112 l81 -12 -18 -71 c-17 -67 -39 -191 -54 -298 l-6 -48 -629 0 -628 0 -5
-302 c-5 -328 -11 -376 -74 -543 -135 -363 -432 -643 -801 -759 -145 -45 -243
-56 -524 -56 l-258 0 0 -1256 0 -1256 373 5 c443 6 602 23 917 98 877 208
1662 738 2186 1476 l66 92 976 3 c1076 4 1013 1 1279 69 224 57 461 162 659
291 144 93 226 159 359 290 l111 108 61 -83 c245 -332 583 -550 1005 -649 93
-22 95 -22 1528 -28 l1435 -5 474 -238 c260 -131 474 -237 476 -235 9 10 1115
2230 1115 2238 0 5 -243 131 -539 280 l-539 269 44 105 c85 200 110 347 101
601 -19 522 -186 991 -506 1420 -96 129 -347 380 -476 476 -382 285 -812 453
-1274 499 -66 6 -791 10 -2012 10 l-1909 0 0 -228 c0 -275 13 -450 45 -608 13
-65 23 -119 22 -121 -2 -1 -39 9 -82 22 -227 70 -427 99 -685 99 -278 0 -484
-32 -734 -115 -65 -22 -119 -39 -120 -37 -1 2 -12 39 -25 83 -34 119 -76 214
-139 315 -198 312 -505 517 -865 575 -112 18 -303 18 -413 -1z m285 -834 c164
-31 298 -167 331 -337 33 -167 -66 -356 -229 -436 -62 -30 -72 -32 -176 -32
-101 0 -115 2 -170 29 -121 59 -214 184 -234 314 -32 202 109 408 314 458 63
16 99 16 164 4z m6542 -1 c261 -26 495 -105 717 -241 100 -61 176 -122 281
-222 298 -290 465 -642 502 -1062 18 -199 -10 -301 -112 -409 -116 -123 -203
-140 -659 -132 -254 5 -320 9 -392 26 -370 85 -658 349 -772 708 -19 63 -86
450 -86 502 0 5 -285 11 -677 14 -562 4 -692 7 -758 20 -392 78 -720 324 -897
676 -20 40 -41 86 -47 102 l-10 29 1403 0 c914 0 1440 -4 1507 -11z m-4206
-862 c135 -34 232 -70 338 -125 377 -193 655 -552 754 -971 36 -157 43 -392
15 -556 -68 -398 -294 -747 -627 -969 -150 -100 -301 -165 -495 -214 l-105
-26 -1178 -3 -1178 -4 -25 -42 c-199 -338 -268 -439 -418 -614 -428 -498
-1038 -848 -1678 -963 l-98 -17 0 417 0 417 58 13 c182 40 445 150 620 258
251 156 482 381 647 632 119 180 234 444 281 643 l18 77 678 0 678 0 -5 23
c-2 12 -16 135 -31 272 -48 456 -21 677 121 970 70 146 158 268 280 390 196
196 409 317 675 385 134 34 186 39 385 35 163 -3 204 -7 290 -28z m2991 -1237
c150 -35 278 -108 391 -220 115 -113 163 -201 254 -462 l44 -128 1067 0 1068
0 270 -135 270 -135 -181 -363 c-100 -199 -182 -363 -184 -365 -2 -2 -84 38
-184 87 l-181 91 -1447 0 c-963 0 -1470 4 -1513 11 -333 53 -607 321 -676 658
-22 113 -15 287 16 386 39 126 105 239 192 331 123 130 247 203 413 245 99 25
276 25 381 -1z"/>
<path d="M210 1875 l0 -1255 185 0 185 0 0 1255 0 1255 -185 0 -185 0 0 -1255z"/>
</g>
</svg>
