<svg xmlns="http://www.w3.org/2000/svg" enable-background="new 0 0 50 50" viewBox="0 0 50 50"><path fill="#d8a353" d="M22.3 36.1C22.3 36.1 22.3 36.1 22.3 36.1c-1.2.2-2.9.4-5.2.4-1.7 0-3.2-.1-4.4-.3-.3 0-.6-.1-.9-.2 0 0 0 0 0 0l-4.5 8.7c-.6 1.3 0 2.8 1.3 3.3 4.1 1.3 12.9 1.3 17 0 1.4-.4 2-2 1.3-3.3L22.3 36.1zM12.2 31.5h.3c0 1.4.1 2.3-.4 3.6 1 .2 2.6.4 4.9.4 2.2 0 3.8-.2 4.8-.4-.5-1.4-.4-2.2-.4-3.6h.3c.7 0 1.3-.6 1.3-1.3 0-.7-.6-1.3-1.3-1.3h-4.2c0-.1.3-1.5.3-1.6-.3.3-.4.5-.5.6 0-.2-.1-.7-.2-1.6-.1.2-.3 2.3-.3 2.5 0 0 0 .1 0 .1h-4.6c-.7 0-1.3.6-1.3 1.3C11 30.9 11.6 31.5 12.2 31.5z" class="color000000 svgShape"/><path fill="#d8a353" d="M41.2,4.3l1.6-0.6c-0.2-0.4-0.7-0.9-1.4-1.4c-2.2-1.5-4.8-1.6-7.4-0.7l1.8,1.1l-3-0.6C31,2.8,29,4.1,27.2,5.7
		c0.9,0.5,2,1.1,2.3,1.2c-0.4-0.1-1.9-0.3-3.2-0.4c-1.3,1.2-2.7,2.6-3.9,4.2c0.7,0.5,1.5,1.1,1.5,1.1h-2.4c0,0-0.1,0.1-0.1,0.1
		c-1.4,1.8-2.3,3.6-2.9,5.3c2.2-0.3,2.3-0.7-0.4,1.3c-1,3.3-1,6.1-0.8,7.8c1-4.1,2.4-8.1,6.5-12.5c2.7-2.6,5.3-4.9,9.1-6.5
		c0.2-0.1,0.3-0.1,0.4-0.2c-5.7,3.5-7.6,6.1-8.8,7.3c-3.2,3.7-5.5,8-6.5,12.9c0.9-1.1,3-3.6,6-6.7l-1.3-0.8l1.8,0.2
		c1.5-1.5,3.1-3.1,4.9-4.8L27.7,15l2.7-0.7c1.3-1.2,2.7-2.2,4.1-3.1l-1.7-0.5c0,0,1.5-0.1,2.8-0.2c1.8-1.2,3.5-2.1,4.9-3l-1.1-0.9
		l1.8,0.3c1.2-0.9,1.8-1.7,1.8-2.5L41.2,4.3z" class="color000000 svgShape"/></svg>