<svg xmlns="http://www.w3.org/2000/svg" viewBox="0 0 66 66"><path fill="#d85b53" d="M26.5 48 13.2 64.4c-.7.8-1.9.8-2.6 0-6.2-7.2-9.1-15.2-9.4-23L23 37.7c.4 2.9 1.6 5.8 3.6 8.3.4.6.3 1.4-.1 2zm-3.7-12.4L1.1 39.3c.1-9.5 3.7-18.5 9.5-25.5l16.7 9.8c-1.8 2-3.2 4.5-4 7.3-.3 1.5-.5 3.1-.5 4.7zm6.1-13.5L12 12.2c.4-.4.8-.8 1.2-1.3 5.5-5.4 12.6-9.1 20.2-9.8l2.4 17.3c-.2 0-.4.1-.6.1-2.3.7-4.4 1.9-6.3 3.6z" class="color000000 svgShape"/><path fill="#d85b53" d="m47.7 40 8.9 7.2c-7.8 6.8-19.7 6.5-27.1-1-4.4-4.4-5.4-9.8-4-14.7C28.1 21.8 39 16 47.1 24.2c6.4 6.5.6 17.7-7.1 15.6-8.3-2.3-5.7-11.9-.1-11.5.6 0 1.1-.4 1.1-1s-.4-1.1-1-1.1c-8.5-.6-11.1 12.7-.7 15.6 3 .8 6 .2 8.4-1.8z" class="color000000 svgShape"/><path fill="#d85b53" d="M37.9 18.2 35.6 1h.3c7.1 0 14.4 2.8 21.3 9.4l-9.4 11.5c-3-2.6-6.4-3.9-9.9-3.7zm20.2 27.5-8.9-7.2c3.6-4.3 3.6-10.7 0-15L58.6 12c8.6 9.6 8.4 24.3-.5 33.7z" class="color000000 svgShape"/></svg>