<svg xmlns="http://www.w3.org/2000/svg" fill-rule="evenodd" clip-rule="evenodd" image-rendering="optimizeQuality" shape-rendering="geometricPrecision" text-rendering="geometricPrecision" viewBox="0 0 100000 100000"><path fill="#595bd4" d="M37640 81486c7738,-4736 9297,-22727 -6748,-25225 -3762,-587 -10236,-161 -3350,-1414 10945,-1991 -402,-519 -2172,-8653 -290,-1340 -86,-2506 161,-2564 248,-59 540,991 1501,2390 1994,2898 6332,6400 9819,6876 3488,476 577,-7590 -175,-8888 -3551,-6124 -8579,-1280 -11961,-11333 -1725,-5124 1852,1397 2782,2462 1108,1267 2216,1617 2711,1501 1532,-361 -2550,-5140 1121,-12398 2497,-4936 -614,4624 846,9411 1470,4821 4962,6116 6030,7896 468,779 2620,7351 2361,2811 -73,-1282 -539,-3175 -263,-3495 278,-321 1297,932 1923,2928 1371,4368 432,8513 1779,9964 743,801 2257,1559 3000,1049 1389,-954 395,-8311 -1996,-11712 -2931,-4167 -8970,-7263 -10518,-10213 -612,-1166 -612,-2360 -393,-2446 218,-89 655,931 1732,1907 1079,977 2798,1909 3643,2040 1588,247 260,-3251 1325,-6818 423,-1413 1211,-2142 1268,-4020 81,-2596 -1722,-9292 598,-4648 1573,3153 1003,5107 1675,4851 979,-376 2679,-3477 6454,-3788 1237,-101 2431,131 2359,394 -19,65 -11680,4561 -10736,12907 989,8736 5124,5566 5652,1515 75,-580 -866,-6568 363,-6978 564,-188 846,8900 4795,3409 933,-1297 1806,-3337 2243,-5260 438,-1923 438,-3728 685,-3773 408,-72 1816,4961 -1851,10389 -5491,8126 -8283,4256 -5201,13284 598,1748 1122,3584 1982,4007 2981,1465 3588,-8261 3904,-9907 992,-5171 4327,-11075 4777,-10110 103,218 -741,1559 -1367,3700 -415,1421 -2047,9748 -1138,10184 1025,491 7505,-7310 6395,-16287 -319,-2593 -1368,-4546 -1179,-4808 144,-198 3297,1743 3510,8114 186,5524 207,3381 3935,2054 1532,-544 8089,-1401 3569,510 -14317,6051 -16376,20166 -13636,20265 3165,113 6958,-4170 8361,-7225 977,-2127 1152,-4197 1573,-4197 302,0 2758,3821 -2534,9296 -3077,3182 -2961,2083 933,2738 4984,838 6201,3750 5258,3772 -1481,35 -2271,-2379 -10561,-1703 -1792,145 -2899,290 -4385,2243 -5205,6836 -6485,18723 845,23570 2519,1667 8309,3486 10358,5798 1683,1901 -4259,-1476 -4793,-1704 -1905,-815 -8288,-2545 -7270,-1588 326,308 3362,1355 3788,2360 790,1865 -6145,-2716 -7371,-2082 -1184,611 -1121,2639 -1720,3598 -1500,2398 -1543,-1980 -1543,-1981 -750,-4334 -7589,2884 -9966,3103 -1086,99 6160,-5941 88,-4080 -2353,722 -4140,3232 -6251,4371 -1106,597 -1687,276 -1266,-467 798,-1400 4238,-3453 2011,-4107 -2848,-837 -6748,2185 -9586,3044 -1733,524 -2870,175 -3002,-146 -258,-631 12729,-5414 14819,-6693zm-13470 -34766c-2493,-1084 -4900,524 -5768,2884 2800,415 4369,-469 5768,-2884zm39288 3986c0,0 -1157,-1272 -1388,-3007 -232,-1736 809,-3934 809,-3934 0,0 1968,1100 2199,2835 232,1735 -1620,4106 -1620,4106zm5094 7577c0,0 -1620,1041 -1620,2488 0,1445 1850,3007 1850,3007 0,0 1273,-1793 1331,-2834 58,-1042 -1561,-2661 -1561,-2661zm-6884 -463c0,0 -1157,1968 -1099,3586 57,1619 1619,2719 1619,2719 0,0 1793,-1447 1678,-3240 -115,-1793 -2198,-3065 -2198,-3065zm13131 868c0,0 2140,57 3413,1330 1272,1273 693,3124 693,3124 0,0 -1619,637 -3296,-636 -1677,-1274 -810,-3818 -810,-3818zm-2196 -4397c0,0 -983,-1158 -579,-2719 405,-1561 2661,-2429 2661,-2429 0,0 1100,1967 695,3239 -405,1272 -2777,1909 -2777,1909zm-405 -8850c0,0 1272,-1447 2891,-1447 1621,0 3877,1215 3877,1215 0,0 -1851,1504 -3472,1678 -1619,173 -3296,-1446 -3296,-1446zm5207 -13305c0,0 1446,-1621 3702,-1274 2256,348 2892,1447 2892,1447 0,0 -1678,1214 -3297,1272 -1619,58 -3297,-1445 -3297,-1445zm-6593 8908c0,0 -578,-984 348,-2661 924,-1678 4338,-1216 4338,-1216 0,0 -290,2373 -1330,3356 -1042,982 -3356,521 -3356,521zm3646 -10066c0,0 -926,-752 -868,-2431 58,-1677 1562,-3238 1562,-3238 0,0 2141,1273 1910,3066 -232,1793 -2604,2603 -2604,2603zm-8586 -6018c0,0 203,-1619 2025,-2111 1822,-492 4251,926 4251,926 0,0 -1156,2024 -2950,2168 -1793,145 -3326,-983 -3326,-983zm-2110 -3413c0,0 -1330,-1331 -1503,-2372 -175,-1040 1474,-3731 1474,-3731 0,0 1388,1418 1388,3009 0,1590 -1359,3094 -1359,3094zm-4422 6565c-1376,-1595 -1137,-3254 -86,-4831 1971,1463 2610,3634 86,4831zm-10671 -1391c-602,-2109 1720,-3176 3759,-3065 -1,2835 -1060,3383 -3759,3065zm6364 -6592c1529,-2773 3296,-1980 5380,-348 -1594,1533 -3552,2358 -5380,348zm-3644 -1678c-983,-2115 -187,-4843 2718,-5380 1054,2787 245,4621 -2718,5380zm-5032 1909c-1795,-283 -2695,-3497 -982,-6594 2682,1694 3332,4164 982,6594zm-5436 -3759c-3239,-1425 -1818,-4849 -637,-6768 2627,2116 2675,4186 637,6768zm-1099 7287c-2698,-482 -3393,-3159 -3991,-5321 3269,138 5128,1913 3991,5321zm-5667 4570c-1411,-2165 -482,-4172 1447,-5438 763,2151 1072,4100 -1447,5438zm-2136 -7635c-4038,-2278 -2097,-5862 519,-7925 1929,3167 2458,5267 -519,7925zm-2081 2660c104,-3917 -3900,-5127 -6537,-5610 440,3033 2472,6842 6537,5610zm-6305 5322c-3654,-1442 -2829,-5330 -1967,-7867 2541,2383 3117,4557 1967,7867zm114 3759c-1001,-3844 -4909,-3005 -7113,-1620 1791,1841 5665,3514 7113,1620zm983 9716c-81,-2936 -1769,-4554 -4568,-4975 -462,4060 564,4725 4568,4975zm10993 3009c-2097,-1371 -3714,-1089 -4859,1273 1734,834 4048,438 4859,-1273zm-1964 14285c-2884,1674 -1673,4560 -290,6421 2501,-2143 2287,-4036 290,-6421zm-6133 -1735c-2453,2171 -2149,4351 -519,6826 2730,-2220 2430,-4191 519,-6826zm-4279 -1851c-2903,-707 -5911,117 -7346,3066 2649,1472 6641,455 7346,-3066zm2746 -5495c-2380,57 -4984,1201 -6420,3355 1756,-1 5801,-704 6420,-3355z" class="color000000 svgShape"/></svg>